<svg xmlns="http://www.w3.org/2000/svg" xml:space="preserve" viewBox="0 0 1024 1024"><path fill="#1F2473" d="M182.048 930.264c-1.524 1.783-3.049 3.565-5.08 5.653-.956.618-1.404.932-1.852 1.245 0 0-.08-.027-.212.122a6.003 6.003 0 0 1-.825.802s.039-.047-.116.202c-.421.723-.689 1.198-.956 1.672-9.797 9.906-19.595 19.812-30.135 29.91-19.054.187-37.364.196-55.675.172-6.915-.009-7.243-.35-7.252-7.433-.025-19.808-.024-39.617-.028-59.887.03-3.22.054-5.978.47-8.643 3.708-.228 7.025-.533 10.337-.884.949-.1 1.903-.56 2.82-.474 3.401.323 6.789.805 11.024 1.333.08.906.384 2.799.392 4.693.05 12.274-.05 24.548.122 36.82.03 2.136 1.123 4.258 2.092 6.603 7.005.32 13.66.714 20.277.374 2.522-.13 5.507-1.36 7.338-3.089 8.823-8.323 17.324-16.986 26.372-25.514 13.296-1.685 26.158-3.384 39.53-5.15-1.154 1.476-2.41 3.047-3.627 4.649-1.97 2.594-3.915 5.209-5.87 7.815 0 0-.183-.053-.34.022-.393.301-.62.539-.835.787 0 0-.014-.058-.167.115-.39.4-.618.637-.834.885 0 0 .175-.057-.148.089-2.143 2.102-3.962 4.059-5.781 6.016 0 0-.104-.078-.24.077-.358.443-.58.73-.8 1.018z" data-index="1" style="opacity:1;fill:#1f2473;stroke:#1f2473"/><path fill="#1F2473" d="M945.025 971.859c-19.618.036-39.238.178-58.853-.034-2.322-.025-5.152-1.448-6.855-3.128-20.126-19.844-40.082-39.861-60.168-60.458 1.022-1.295 2.21-2.634 3.224-2.512 3.364.404 6.816.938 9.961 2.138 8.246 3.145 16.536 2.57 25.195 1.236 7.37 7.213 14.462 14.26 21.63 21.68 2.504 2.624 4.933 4.873 7.632 7.298 3.162 4.207 7.114 5.24 11.934 4.978 6.267-.34 12.566-.082 19.1-.425.56-2.277 1.112-4.208 1.138-6.146.106-7.793.014-15.588.08-23.382.014-1.695.374-3.388.571-5.059 4.064 1.36 7.418 2.837 10.925 3.52 1.957.38 4.942-1.592 6.128-.71 3.88 2.887 5.902.375 8.292-1.351.025 21.096.045 41.725.066 62.355z" data-index="2" style="fill:#1f2473;opacity:1"/><path fill="#0C5A9D" d="m309.92 594.209-25.126-24.364c0 44.938 0 89.546-.335 134.624-.707.49-1.079.51-1.448.062-.01-12.817-.022-25.166-.029-37.984.006-21.779.006-43.088.006-64.397l-1.597-.956c-2.533 5.504-6.525 6.147-11.643 5.423-4.657-.659-8.36-1.592-9.605-6.703-.092-.376-.749-.614-1.152-1.385.008-28.821-.029-57.175.142-85.527.015-2.374 1.432-4.74 2.485-6.96 29.406 29.726 58.525 59.302 87.285 89.048-6.495 3.631-12.188.59-18.179-.644-6.165-1.27-12.592-1.303-18.915-1.73-.593-.04-1.258.97-1.89 1.493z" data-index="3" style="fill:#0c5a9d;stroke:#0c5a9d"/><path fill="#0194BD" d="M81.02 67.94c33.316 33.443 66.632 66.885 99.728 100.575-2.17-1.264-3.975-3.05-6.125-4.182-1.238-.652-3.842-.924-4.442-.206-3.318 3.97-6.975 3.194-10.176.66-6.64-5.256-14.346-3.852-21.789-4.143-1.172-.046-2.385.983-3.848 1.378-1.358-1.314-2.447-2.49-3.365-3.916 1.671-4.619-1.913-2.397-3.634-3.115-6.796-6.653-13.306-13.153-20.48-20.316 0 6.07 0 11.208-.289 16.566-.735 3.082-1.18 5.942-1.937 8.905-3.332 3.175-6.404 3.912-10.072.903-.893-.732-3.408-.918-4.076-.252-3.291 3.28-6.827 2.184-10.468.763 0-6.863.01-13.256.113-19.82.032-.663-.028-1.154-.097-2.12-.009-21.92-.036-43.368.036-64.815.008-2.29.6-4.576.921-6.864z" data-index="4" style="fill:#0194bd;stroke:#0194bd"/><path fill="#0866A4" d="M464.234 452.906c.863.767 1.726 1.534 2.878 2.78.512.763.735 1.047.958 1.33 0 0-.084-.13.073.177 1.262 1.097 2.365 1.888 3.468 2.679l39.656 41.14c13.085-13.084 24.957-24.953 37.522-36.937 4.711 1.021 8.217.564 10.845-2.72 2.929.182 5.565-.581 8.255-.95 2.686-.367 5.97-1.358 8.023-.261 3.661 1.956 5.998 1.357 8.883-1.104 2.27-1.937 5.101-3.308 6.173 1.6-18.426 18.63-36.7 36.978-55.016 54.968-1.411-4.555-7.72-6.679-12.949-5.447-3.565.84-7.72 1.583-11.032.535-4.942-1.566-9.287-1.647-13.895.459-1.172.535-2.628.411-3.88.818-1.469.476-2.857 1.201-4.28 1.818.82 1.36 1.538 2.797 2.482 4.065 2.427 3.261 4.954 6.448 7.148 9.478a2117.386 2117.386 0 0 1-19.016-18.89c-17.229-17.354-34.436-34.731-51.596-52.495.706-4.64 3.617-3.845 6.482-3.34 6.597 1.163 13.173 2.711 19.822 3.178 2.917.205 5.993-1.851 8.996-2.88z" data-index="5" style="opacity:1;fill:#0866a4;stroke:#0866a4"/><path fill="#018CB7" d="M772.897 238.616c19.237-19.294 38.47-38.593 57.714-57.88 9.505-9.528 19.03-19.036 29.136-28.512 1.103 1.996 1.616 3.951 1.964 5.277 2.468-.501 4.949-.994 7.424-1.513 1.746-.366 3.689-.393 5.193-1.214 7.584-4.138 12.788-3.173 17.658 3.871a6902.763 6902.763 0 0 1-35.056 35.367c-23.295 23.354-46.605 46.693-70.076 69.745-1.755-3.179-4.057-4.12-7.452-4.121-7.32-.004-14.831.46-21.287-3.965 2.38-2.554 4.67-4.75 6.73-7.142 2.776-3.224 5.376-6.601 8.052-9.913z" data-index="6" style="fill:#018cb7;stroke:#018cb7"/><path fill="#0C5A9D" d="M740.003 570.016c-1.273.79-2.75 1.377-3.788 2.406-7.882 7.805-15.678 15.696-23.871 23.29-2.214-5.916-6.368-3.503-9.849-2.851-8.536 1.597-17.049 5.108-25.32-.514 26.396-26.652 52.595-52.999 78.972-79.52.41-.413.636-.656.798-.866-.062.035-.132-.088.248-.092 1.821-1.49 3.262-2.976 4.789-4.67.542-.582.998-.956 1.808-1.12.963 2.339 2.082 4.461 2.102 6.594.16 17.278.052 34.558.205 51.835.02 2.148 1.087 4.287 1.747 6.896.06 21.503.043 42.538-.268 63.343-.718-2.12-1.472-4.003-1.51-5.9-.145-7.49-.036-14.985-.091-22.478-.015-2.074-.272-4.146-.463-6.873-4.526.891-8.386 1.59-12.217 2.421-4.329.938-8.539 1.372-12.23-2.325-.027-4.607.078-8.746-.084-12.875-.218-5.571-.642-11.135-.978-16.701m-24.77 18.53.136 1.53 1.714-1.722c-.511-.04-1.023-.081-1.85.193z" data-index="7" style="fill:#0c5a9d;stroke:#0c5a9d"/><path fill="#018CB7" d="M134.636 162.159c1.195-.532 2.408-1.56 3.58-1.515 7.443.29 15.149-1.113 21.79 4.143 3.2 2.534 6.857 3.31 10.175-.66.6-.718 3.204-.446 4.442.206 2.15 1.132 3.956 2.918 6.251 4.499.346.07.233.2.385.3.43.327.707.553.985.78 4.515 4.414 9.031 8.828 13.88 13.735.594.75.855 1.01 1.116 1.268.758.657 1.517 1.315 2.572 2.49 2.746 2.72 5.195 4.92 7.644 7.122-.139.139-.277.278-.199.574 1.158 1.668 1.856 3.42 3.076 4.652a5016.82 5016.82 0 0 0 36.982 36.98c1.356 1.341 3.255 2.135 4.902 3.183 1.204 1.104 2.408 2.21 3.78 3.92.45 1.415.73 2.224 1.01 3.467-.252 7.922-1.513 8.766-8.25 5.906-3.88-1.647-7.726-3.375-11.628-4.97-.873-.357-2.104-.721-2.841-.377-3.11 1.45-4.64-.494-6.872-2.172-3.031-2.279-6.622-4.918-11.022-1.714a2716.885 2716.885 0 0 1-22.925-22.718c-19.622-19.688-39.223-39.398-58.833-59.1z" data-index="8" style="fill:#018cb7;stroke:#018cb7"/><path fill="#0194BD" d="M892.132 158.356c-5.016-6.755-10.22-7.72-17.804-3.582-1.504.821-3.447.848-5.193 1.214-2.475.519-4.956 1.012-7.424 1.513-.348-1.326-.861-3.281-1.664-5.414 15.543-16.072 31.376-31.967 47.946-47.985a3092.787 3092.787 0 0 0 20.732-4.52c.316-.07.594-.302.909-.397 4.815-1.463 9.633-2.915 15.175-4.589 0 17.415 0 33.957-.308 50.591-2.235 2.268-4.25 4.372-6.065 6.637-1.979 2.469-3.825 3.33-7.462 2.877-5.196-.648-8.597-3.143-11.832-7.11-.41-4.84-.788-9.211-1.513-13.654-8.73 8.092-17.114 16.256-25.497 24.42z" data-index="9" style="fill:#0194bd;stroke:#0194bd"/><path fill="#1B2E7C" d="M945.39 971.753c-.386-20.524-.406-41.153-.42-62.722.006-16.213.006-31.487.006-45.604-4.345 0-7.446.218-10.503-.055-3.892-.348-8.102-2.341-11.534-1.366-4.792 1.361-8.952 1.544-13.467-.242-1.319-.522-2.947-.202-4.39-.484-2.474-.484-4.963-.986-7.357-1.757-3.6-1.158-6.861-4.64-11.276-1.524-11.075-10.973-21.871-21.772-32.444-32.858 1.392-.7 2.614-1.58 3.72-1.453 9.634 1.113 19.211 2.187 27.712-4.596 9.767 9.586 19.228 19.027 28.772 28.384 1.05 1.03 2.576 1.576 4.041 1.988.341-2.156.666-3.953.677-5.752.076-11.568.082-23.138.46-34.615 3.06 1.803 5.717 3.61 8.508 5.18 1.186.666 2.651 1.154 3.995 1.166 5.378.047 11.062.49 13.07-5.952.034 10.206-.013 19.946.125 29.683.036 2.587.641 5.165.985 7.748.115 14.934.258 29.867.339 44.802.132 24.407.252 48.815.29 73.223.004 2.233-.615 4.466-1.31 6.806z" data-index="10" style="fill:#1b2e7c;opacity:1"/><path fill="#0282B2" d="M216.679 244.132c4.115-3.36 7.706-.721 10.737 1.558 2.232 1.678 3.762 3.621 6.872 2.172.737-.344 1.968.02 2.841.377 3.902 1.595 7.749 3.323 11.629 4.97 6.736 2.86 7.997 2.016 8.522-5.703 4.582 3.312 8.888 6.856 13.193 10.4 1.777 1.663 3.553 3.326 5.55 5.637 1.654 1.893 3.087 3.138 4.52 4.383.222-.057.392.012.599.725 5.236 6.183 10.295 11.934 15.581 17.468 1.516 1.586 3.687 2.547 5.558 3.795 11.817 11.8 23.634 23.6 35.45 35.986-2.371 4.236-5.565 2.678-7.786 1.055-11.114-8.118-23.564-7.12-36.4-6.06a4836.764 4836.764 0 0 1-30.719-30.452c-15.402-15.417-30.767-30.872-46.147-46.311z" data-index="11" style="fill:#0282b2;stroke:#0282b2"/><path fill="#163A86" d="M544.983 763.937c-.141.31-.344.571-1.075 1.028-.941.535-1.415.826-1.889 1.117 0 0-.002-.064-.147.117a20.77 20.77 0 0 1-.84.88s-.013-.063-.143.166c-.387.724-.643 1.218-.9 1.712-.84.904-1.68 1.808-3.04 2.981-.992.56-1.463.85-1.934 1.14 0 0-.002-.067-.124.154-.37.693-.617 1.165-.866 1.637-.643.656-1.287 1.311-2.458 2.222-.87.495-1.212.735-1.554.974 0 0-.01-.062-.164.197-.382.61-.61.96-.84 1.31.063.201 0 .346-.59.679-.743.6-1.087.954-1.43 1.31-.334.442-.669.885-1.475 1.556-.816.468-1.16.707-1.505.946 0 0-.009-.062-.161.197-.381.611-.61.963-.84 1.315-2.996 3.08-5.993 6.16-9.759 9.34-1.38.136-1.99.172-2.6.209-18.479-18.444-36.957-36.887-55.337-55.902 4.38-1.269 8.712-2.762 12.931-2.492 8.346.535 16.629 2.044 24.9 3.205-.037.054-.148-.016.026.172.42.424.665.66.868.898-.042 0-.042-.086.132.102.42.424.665.66.868.897-.042 0-.042-.084.133.103.419.424.664.66.867.897-.042 0-.041-.084.133.103.418.423.663.66.868.903-.04.006-.052-.074.155.1.493.394.78.613 1.39.905 4.6 4.083 8.878 8.094 14.693 13.546 3.627-4.324 7.1-8.465 10.996-12.55 9.07.483 17.717.908 26.363 1.338 2.097.105 4.194.227 6.29.342-1.089 1.717-2.07 3.515-3.29 5.134-2.822 3.75-5.76 7.414-8.652 11.112z" data-index="12" style="opacity:1;fill:#163a86;stroke:#163a86"/><path fill="#037BAE" d="M293.83 321.058c12.55-1.223 25-2.22 36.115 5.897 2.221 1.623 5.415 3.181 7.947-.766 15.075 14.804 29.989 29.906 45.126 45.649 2.3 2.435 4.375 4.23 6.45 6.026.81.729 1.62 1.457 2.635 2.794 1.282 1.477 2.36 2.346 3.436 3.215.24.005.423.109.519.839-.165 1.179-.278 1.836-.436 2.482-.338 1.383-.7 2.76-1.05 4.139-1.382-.663-2.752-1.35-4.147-1.983-1.312-.595-2.633-1.558-3.98-1.61-3.434-.133-6.886.256-10.33.247-7.085-.02-8.015.984-7.461 7.994a2101.18 2101.18 0 0 1-18.97-18.822c-18.624-18.695-37.237-37.4-55.854-56.101z" data-index="13" style="fill:#037bae;stroke:#037bae"/><path fill="#0573A9" d="M368.949 396.144c-.849-7.173.08-8.177 7.166-8.157 3.444.01 6.896-.38 10.33-.247 1.347.052 2.668 1.015 3.98 1.61 1.395.633 2.765 1.32 4.146 1.983.352-1.38.713-2.756 1.05-4.14.159-.645.272-1.302.487-2.326 19.253 18.754 38.424 37.879 57.93 57.548.585.91.834 1.276 1.083 1.643 2.952 2.738 5.904 5.476 8.985 8.531-2.875 1.347-5.95 3.403-8.868 3.198-6.65-.467-13.225-2.015-19.822-3.178-2.865-.505-5.776-1.3-6.776 3.164-20.13-19.73-39.911-39.679-59.691-59.629z" data-index="14" style="fill:#0573a9;stroke:#0573a9"/><path fill="#0282B2" d="M757.922 255.942c6.649 4.154 14.16 3.69 21.48 3.694 3.395.002 5.697.942 7.299 4.416a3464.055 3464.055 0 0 1-63.863 63.794c-.808-.864-1.35-1.856-2.008-1.94-6.833-.865-13.682-1.61-20.536-2.293-.52-.052-1.163.556-1.66.964-5.472 4.48-5.46 4.483-7.943-1.67-.182-.45-.563-.82-.85-1.226 1.085-1.177 2.171-2.355 3.883-3.73 1.627-.754 2.816-1.122 3.6-1.899 8.848-8.75 17.672-17.524 26.386-26.406 1.081-1.102 1.49-2.864 2.21-4.32 0 0-.092-.206.145-.478.45-.53.664-.79.878-1.048 1.755-1.868 3.51-3.735 5.93-5.74 2.549-1.37 4.667-2.355 6.278-3.876 6.344-5.99 12.528-12.147 18.771-18.242z" data-index="15" style="opacity:1;fill:#0282b2;stroke:#0282b2"/><path fill="#1D2979" d="M191.505 921.127c1.644-2.478 3.589-5.093 5.56-7.687 1.216-1.602 2.472-3.173 3.625-4.649-13.37 1.766-26.233 3.465-39.338 4.866 4.117-4.628 8.486-8.946 12.833-13.287 17.501-17.483 34.995-34.973 52.853-52.32 5.405 1.26 10.413 3.017 15.503 3.3 4.148.23 8.372-1.638 12.605-1.91 1.973-.128 4.046 1.319 6.074 2.052-23.134 23.169-46.269 46.338-69.715 69.635z" data-index="16" style="fill:#1d2979;stroke:#1d2979"/><path fill="#1D2979" d="M857.253 908.934c-8.383 1.5-16.673 2.076-24.919-1.07-3.145-1.199-6.597-1.733-9.961-2.137-1.014-.122-2.202 1.217-3.395 2.237-19.326-18.789-38.566-37.929-57.725-57.642 3.029-.78 6.138-1.688 8.89-1.05 6.003 1.39 11.824 3.566 17.924 5.485 2.06-4.981 4.83-7.63 10.145-5.575 19.87 20.038 39.455 39.895 59.04 59.752z" data-index="17" style="fill:#1d2979;stroke:#1d2979"/><path fill="#0F5196" d="M676.979 592.651c8.467 5.318 16.98 1.807 25.516.21 3.481-.652 7.635-3.065 9.53 2.98.011.686-.13.914-.771 1.341-.661.535-.922.807-1.183 1.078-.763.85-1.526 1.701-2.764 2.84-.757.515-1.039.74-1.32.965 0 0-.001-.078-.132.128-.347.49-.564.774-.78 1.058-1.752 1.838-3.503 3.676-5.75 5.826-.779.538-1.06.764-1.34.99 0 0-.001-.082-.13.125-.348.49-.567.773-.785 1.056-1.099 1.187-2.198 2.374-3.923 3.782-1.763 1.667-2.9 3.113-4.036 4.559-4.006 4.036-8.012 8.073-12.556 12.513a20.257 20.257 0 0 0-1.565 1.457c-2.297 2.382-4.593 4.764-7.427 7.544a19.903 19.903 0 0 0-1.574 1.457c-.422.514-.844 1.029-1.915 1.43-2.312.305-4.063.516-5.622 1.177-4.953 2.101-9.782 4.503-14.771 6.508-1.959.787-4.331.524-6.315 1.271-6.998 2.635-13.907 4.808-20.642-.384 20.214-20.162 40.234-40.036 60.255-59.91z" data-index="18" style="fill:#0f5196;stroke:#0f5196"/><path fill="#12478F" d="M616.53 652.85c6.929 4.904 13.838 2.73 20.836.096 1.984-.747 4.356-.484 6.315-1.271 4.989-2.005 9.818-4.407 14.77-6.508 1.56-.661 3.31-.872 5.39-1.075-6.293 7.018-13.005 13.82-20.255 20.94-.888.557-1.236.797-1.585 1.037 0 0-.001-.07-.151.188-.382.61-.614.964-.846 1.317-13.666 13.777-27.331 27.555-41.688 41.38-2.807-.18-4.966-.787-7.032-.558-4.084.451-8.093 1.593-12.178 2.03-5.24.56-11.076 3.534-15.029-2.973-.29-.478-1.548-.37-2.174-.823 17.997-18.12 35.812-35.95 53.627-53.78z" data-index="19" style="opacity:1;fill:#12478f;stroke:#12478f"/><path fill="#19317F" d="M797.93 849.001c-5.034-1.875-7.802.775-9.863 5.756-6.1-1.92-11.921-4.095-17.924-5.485-2.752-.638-5.861.27-9.062.773a317.181 317.181 0 0 1-20.029-19.871c-.1-14.231-.057-27.69.316-41.011 5.131 2.876 10.12 2.521 15.215 1.132 5.883-1.604 8.032-.133 9.337 5.902.36 1.663 1.307 3.199 2.038 5.259.066 3.945.37 7.455.02 10.898-.463 4.54 1.184 7.729 4.428 10.867 8.689 8.407 17.039 17.163 25.523 25.78z" data-index="20" style="fill:#19317f;stroke:#19317f"/><path fill="#19317F" d="M261.503 851.297c-2.31-.538-4.384-1.985-6.357-1.858-4.233.273-8.457 2.14-12.605 1.91-5.09-.282-10.098-2.04-15.312-3.585 1.23-1.846 2.629-3.266 4.029-4.685 8.741-8.862 17.482-17.725 26.456-26.986.587-7.162 1.194-13.926 1.2-20.69.004-4.15 1.488-5.874 5.44-7.47 6.463-2.608 12.446.944 18.621.55.014 9.523-.086 18.58.089 27.632.078 4.072.704 8.133 1.08 12.2-7.452 7.595-14.905 15.191-22.64 22.982z" data-index="21" style="fill:#19317f;stroke:#19317f"/><path fill="#0474AB" d="M581.035 431.006c5.864-6.083 11.646-12.25 17.61-18.234 16.519-16.579 33.113-33.082 50.204-49.506 2.87 2.801 4.64 6.532 9.249 5.381 7.148-1.784 14.879-.023 21.765-3.875 1.545-.864 4.128.125 6.074.556-16.367 16.44-32.573 32.583-49.01 48.452-2.787-1.39-5.282-3.242-7.915-3.464-5.488-.463-11.056-.212-16.573.09-1.312.071-2.591 1.437-3.811 2.312-1.836 1.316-3.576 3.83-5.412 3.881-5.036.143-8.146 2.834-11.47 6.013-3.262 3.12-7.116 5.621-10.711 8.394z" data-index="22" style="fill:#0474ab;stroke:#0474ab"/><path fill="#114B92" d="M409.888 694.365c-16.885-16.874-33.771-33.748-50.63-51.222 2.697-3.958 5.948-4.284 9.79-2.78 3.125 1.224 6.388 2.103 9.607 3.077 2.217.671 4.552 1.031 6.68 1.904 5.06 2.073 6.641 1.253 7.94-4.156 3.965 3.77 7.55 7.469 11.383 10.89 2.413 2.152 5.198 3.887 8.091 5.967 12.03 12.061 23.785 23.965 35.148 35.923-4.37-.665-8.71-.608-12.256-2.257-8.324-3.873-16.3-1.505-24.386.175-.601.125-.918 1.62-1.367 2.48z" data-index="23" style="fill:#114b92;stroke:#114b92"/><path fill="#0F5196" d="M393.002 641c-1.026 5.597-2.607 6.417-7.666 4.344-2.13-.873-4.464-1.233-6.681-1.904-3.219-.974-6.482-1.853-9.606-3.076-3.843-1.505-7.094-1.18-9.947 2.489-16.413-15.816-32.642-31.942-49.026-48.357.475-.81 1.14-1.82 1.733-1.78 6.323.427 12.75.46 18.915 1.73 5.991 1.234 11.684 4.275 18.448.782 1.72 1.147 2.811 2.326 4.062 3.722.383.498.607.78.793 1.06-.038 0-.037-.074.169.097.49.39.773.607 1.343.98 5.371 5.332 10.456 10.51 15.619 16.033 2.07 2.163 4.063 3.981 6.341 5.95 2.398 2.248 4.51 4.344 6.71 6.806 1.182 1.25 2.275 2.135 3.505 3.048.313.132.4.287.474.851 1.058 1.289 2.036 2.22 3.264 3.26.707.66 1.167 1.21 1.609 2.127-.031.858-.045 1.348-.059 1.838z" data-index="24" style="fill:#0f5196;stroke:#0f5196"/><path fill="#066DA9" d="M580.813 431.122c3.817-2.889 7.671-5.39 10.934-8.51 3.323-3.18 6.433-5.87 11.47-6.013 1.835-.052 3.575-2.565 5.41-3.881 1.22-.875 2.5-2.24 3.812-2.312 5.517-.302 11.085-.553 16.573-.09 2.633.222 5.128 2.074 7.777 3.737-.811 1.365-1.713 2.18-2.795 3.19-.436.438-.692.682-1.096 1.218-14.024 14.16-27.9 28.028-41.776 41.895-1.226-4.624-4.057-3.253-6.327-1.316-2.885 2.461-5.222 3.06-8.883 1.104-2.052-1.097-5.337-.106-8.023.262-2.69.368-5.326 1.13-8.255.95-2.628 3.283-6.134 3.74-10.559 2.567 3.022-3.598 6.452-7.158 10.521-10.944 3.904-3.77 7.169-7.314 10.434-10.857.208-.283.417-.566 1.206-1.03 2.3-1.813 4.018-3.448 6.056-5.195 1.118-1.361 1.917-2.61 2.717-3.86.194-.265.388-.532.804-.915z" data-index="25" style="opacity:1;fill:#066da9;stroke:#066da9"/><path fill="#13438D" d="M410.044 694.646c.293-1.14.61-2.635 1.21-2.76 8.087-1.68 16.063-4.048 24.387-.175 3.546 1.65 7.885 1.592 12.536 2.419 15.449 15.322 30.226 30.536 45.004 45.75-8.309-1.106-16.592-2.615-24.938-3.15-4.219-.27-8.55 1.223-13.092 2.206-15.158-14.478-30.055-29.244-45.107-44.29z" data-index="26" style="fill:#13438d;stroke:#13438d"/><path fill="#037BAE" d="M686.096 365.032c-2.105-.135-4.688-1.124-6.233-.26-6.886 3.852-14.617 2.09-21.765 3.875-4.61 1.151-6.378-2.58-8.95-5.537 13.212-13.88 26.651-27.494 40.392-41.269.588.247.97.616 1.15 1.066 2.484 6.153 2.472 6.15 7.943 1.67.498-.408 1.141-1.016 1.66-.964 6.855.683 13.704 1.428 20.537 2.294.657.083 1.2 1.075 1.86 2.234-12.156 12.69-24.375 24.79-36.594 36.891z" data-index="27" style="fill:#037bae;stroke:#037bae"/><path fill="#143E88" d="M562.72 706.919c.809.164 2.067.056 2.357.534 3.953 6.507 9.789 3.533 15.03 2.973 4.084-.437 8.093-1.579 12.177-2.03 2.066-.229 4.225.378 6.761.73-6.267 6.782-12.99 13.404-19.635 20.105-11.32 11.419-22.591 22.887-34.155 34.52 2.62-3.512 5.558-7.176 8.38-10.926 1.22-1.62 2.201-3.417 3.29-5.134-2.096-.115-4.193-.237-6.29-.342-8.646-.43-17.293-.855-26.186-1.625 12.593-13.164 25.432-25.984 38.272-38.805z" data-index="28" style="fill:#143e88;stroke:#143e88"/><path fill="#019ED0" d="M944.809 145.095V94.596c-5.542 1.674-10.36 3.126-15.175 4.589-.315.095-.593.328-.91.398-6.662 1.474-13.328 2.933-20.43 4.382 12.176-12.473 24.79-24.932 37.962-37.942 0 110.03 0 219.532-.34 329.471-.513.424-.687.411-.855-.059-.049-16.77-.104-33.082-.126-49.867-.006-23.822-.045-47.17-.059-70.99-.003-22.141-.032-43.812-.036-65.956.005-21.491-.013-42.51-.031-63.527m-.344-71.59s.042-.016 0 0z" data-index="29" style="fill:#019ed0;stroke:#019ed0"/><path fill="#019ED0" d="M80.067 141.911c-.01 6.393-.02 12.786-.029 20.114.013 11.978.024 23.021.028 34.37-.006.711-.005 1.118-.017 1.998-.006 7.862.001 15.25-.002 23.103-.059 30.803-.105 61.14-.386 91.467-.545-.045-.857-.048-1.17-.022-.085-15.636-.235-31.271-.246-46.907-.046-66.06-.05-132.12.062-198.801.31-.824.434-1.054.505-1.313.646.484 1.292.968 2.073 1.736-.186 2.573-.778 4.86-.786 7.149-.072 21.447-.045 42.894-.041 65.118l.009 1.988z" data-index="30" style="fill:#019ed0;stroke:#019ed0"/><path fill="#13438D" d="M79.994 893.986c-.023 2.758-.047 5.516-.286 8.664-.488.272-.77.186-1.062.131-.117-44.547-.258-89.094-.34-133.64-.031-17.12.073-34.24.47-51.818.637-.413.921-.378 1.216.118.038 12.536.067 24.601.086 37.118.008 4.777.027 9.102.03 13.897-.03 16.836-.045 33.203-.066 50.037-.02 25.476-.034 50.484-.048 75.493z" data-index="31" style="fill:#13438d;stroke:#13438d"/><path fill="#125DB3" d="M79.983 716.97c-.286-.025-.57-.06-1.068-.105a4030.256 4030.256 0 0 1-.532-58.79c-.056-27.74-.017-55.48.324-83.686.64-.452.936-.44 1.255.045.043 19.18.066 37.888.08 57.063-.015 22.48-.022 44.492-.038 66.973-.014 6.478-.017 12.49-.021 18.5z" data-index="32" style="fill:#125db3;stroke:#125db3"/><path fill="#0677BB" d="M79.94 573.962c-.297-.012-.593-.025-1.112-.03a672.971 672.971 0 0 1-.483-24.897c-.028-36.06-.01-72.12.333-108.656.64-.468.937-.462 1.26.017a3913 3913 0 0 1 .112 20.096c-.013 17.152-.016 33.838-.025 50.991-.01 20.149-.014 39.83-.03 59.883a564.97 564.97 0 0 0-.055 2.596z" data-index="33" style="fill:#0677bb;stroke:#0677bb"/><path fill="#112867" d="M78.523 903.253c.415-.417.697-.33 1.179-.141.219 19.88.218 39.689.243 59.497.009 7.082.337 7.424 7.252 7.433 18.31.024 36.621.015 55.405.02-1.52.578-3.507 1.638-5.504 1.657-17.772.17-35.546.11-53.319.236-3.568.025-5.663-.85-5.633-4.955.156-21.091.183-42.184.377-63.747z" data-index="34" style="fill:#112867;stroke:#112867"/><path fill="#028CC7" d="M79.913 439.92c-.298-.003-.595-.009-1.116 0-.32-11.439-.488-22.894-.503-34.35-.04-30.568-.014-61.136.092-92.166.418-.489.73-.486 1.332-.426.29.028.401.062.384.525-.032 22.823-.047 45.182-.065 67.77-.004.227.001.683-.013 1.154-.007 7.174 0 13.877-.003 21.049-.043 12.46-.075 24.452-.108 36.445z" data-index="35" style="fill:#028cc7;stroke:#028cc7"/><path fill="#13438D" d="M284.366 827.94c-.598-3.692-1.224-7.753-1.302-11.825-.175-9.052-.075-18.109-.08-28.102-.002-21.94-.01-42.94-.01-64.415.015-6.515.025-12.557.035-18.599.371-.02.743-.04 1.393-.07.36 17.607.522 35.222.5 52.838a5464.13 5464.13 0 0 1-.536 70.173z" data-index="36" style="fill:#13438d;stroke:#13438d"/><path fill="#0677BB" d="M945.054 395.892c.175.013.349.026.785.064.38 14.814.6 29.603.598 44.392-.008 42.575-.106 85.15-.513 128.169-.517.433-.69.422-.867-.05-.048-21.113-.094-41.765-.124-62.889-.008-28.138-.033-55.804-.04-83.945.065-8.897.113-17.319.161-25.74z" data-index="37" style="fill:#0677bb;stroke:#0677bb"/><path fill="#125DB3" d="m945.06 568.928.78.05c.341 8.986.5 17.954.49 26.921-.043 41.39-.134 82.78-.504 124.625-.296.455-.772.431-.77-.032-.022-5.806-.046-11.149-.053-16.96-.007-19.146-.032-37.824-.042-56.971-.003-21.143-.02-41.816-.024-62.959.05-5.205.087-9.94.123-14.674z" data-index="38" style="fill:#125db3;stroke:#125db3"/><path fill="#125DB3" d="M739.946 570.48c.393 5.102.817 10.666 1.035 16.237.162 4.129.057 8.268.073 13.336-.001 21.612-.005 42.29-.02 63.434-.04 19.785-.069 39.105-.322 58.444-.226.02-.677.055-.677.055-.073-33.73-.164-67.462-.21-101.192-.022-16.617.04-33.234.12-50.314z" data-index="39" style="fill:#125db3;stroke:#125db3"/><path fill="#0194BD" d="M252.092 239.598c-1.522-.73-3.42-1.524-4.777-2.866a5016.82 5016.82 0 0 1-36.982-36.979c-1.22-1.233-1.918-2.984-2.863-4.855 14.83 14.553 29.663 29.468 44.622 44.7z" data-index="40" style="fill:#0194bd;stroke:#0194bd"/><path fill="#114B92" d="m945.054 720.955.714.035a1056.9 1056.9 0 0 1 .478 31.867c.006 31.05-.05 62.099-.128 93.606-.392-2.124-.997-4.702-1.033-7.289-.138-9.737-.091-19.477-.107-30.155-.013-18.28-.033-35.622-.035-53.439.049-11.858.08-23.241.111-34.625z" data-index="41" style="fill:#114b92;stroke:#114b92"/><path fill="#019ED0" d="M758.115 255.671c-6.436 6.366-12.62 12.524-18.964 18.513-1.611 1.521-3.73 2.506-5.983 3.748 12.798-12.983 25.965-25.977 39.43-39.143-2.377 3.139-4.977 6.516-7.753 9.74-2.06 2.393-4.35 4.588-6.73 7.142z" data-index="42" style="fill:#019ed0;stroke:#019ed0"/><path fill="#114B92" d="M739.94 722.447c.095-.461.546-.497.788-.086.273 1.84.304 3.268.331 5.162-.009 20.81-.015 41.156-.02 61.502-.044 13.459-.087 26.918-.148 40.871-.364-.911-1.01-2.316-1.011-3.722-.054-34.422-.039-68.843.06-103.727z" data-index="43" style="fill:#114b92;stroke:#114b92"/><path fill="#028CC7" d="M725.628 285.54c-.428 1.242-.837 3.004-1.918 4.106-8.714 8.882-17.538 17.657-26.385 26.406-.785.777-1.974 1.145-3.327 1.773 10.21-10.643 20.774-21.356 31.63-32.284z" data-index="44" style="fill:#028cc7;stroke:#028cc7"/><path fill="#028CC7" d="M302.119 289.613c-1.709-.947-3.88-1.908-5.396-3.494-5.286-5.534-10.345-11.285-15.56-17.322 6.886 6.592 13.84 13.553 20.956 20.816z" data-index="45" style="fill:#028cc7;stroke:#028cc7"/><path fill="#019ED0" d="M270.284 257.612c-4.116-3.25-8.422-6.794-13.001-10.54-.555-1.012-.836-1.821-1.17-2.95 4.625 4.186 9.303 8.691 14.171 13.49z" data-index="46" style="fill:#019ed0;stroke:#019ed0"/><path fill="#0677BB" d="M569.752 442.301c-2.987 3.364-6.252 6.908-9.88 10.525 2.96-3.4 6.281-6.873 9.88-10.525z" data-index="47" style="fill:#0677bb;stroke:#0677bb"/><path fill="#0194BD" d="M207.278 194.251c-2.271-1.925-4.72-4.127-7.218-6.669 2.314 1.905 4.677 4.15 7.218 6.67z" data-index="48" style="fill:#0194bd;stroke:#0194bd"/><path fill="#1D2979" d="M183.402 929.045a59.425 59.425 0 0 1 5.496-5.805c-1.493 1.855-3.338 3.769-5.496 5.805z" data-index="49" style="fill:#1d2979;stroke:#1d2979"/><path fill="#0677BB" d="M389.293 377.567a71.506 71.506 0 0 1-6.13-5.435c1.933 1.482 3.944 3.31 6.13 5.435z" data-index="50" style="fill:#0677bb;stroke:#0677bb"/><path fill="#0677BB" d="M576.973 436.01c-1.719 1.634-3.438 3.269-5.499 4.962 1.143-1.482 2.628-3.023 4.593-4.752.48-.187.906-.21.906-.21z" data-index="51" style="fill:#0677bb;stroke:#0677bb"/><path fill="#0C5A9D" d="M689.402 619.398c.845-1.255 1.982-2.7 3.473-4.23-.825 1.29-2.003 2.665-3.473 4.23z" data-index="52" style="fill:#0c5a9d;stroke:#0c5a9d"/><path fill="#019ED0" d="M280.344 267.634a35.636 35.636 0 0 1-4.19-3.819c1.271.926 2.631 2.227 4.19 3.82z" data-index="53" style="fill:#019ed0;stroke:#019ed0"/><path fill="#0474AB" d="M577.292 435.897c-.32.113-.745.136-.958.139.903-1.225 2.02-2.452 3.405-3.839-.53 1.09-1.33 2.339-2.447 3.7z" data-index="54" style="fill:#0474ab;stroke:#0474ab"/><path fill="#0677BB" d="M395.356 383.58c-.894-.576-1.97-1.445-3.135-2.674.926.554 1.939 1.469 3.135 2.675z" data-index="55" style="fill:#0677bb;stroke:#0677bb"/><path fill="#0573A9" d="M471.425 459.588c-.917-.507-2.02-1.298-3.216-2.438.948.486 1.988 1.32 3.216 2.438z" data-index="56" style="fill:#0573a9;stroke:#0573a9"/><path fill="#143E88" d="M510.887 795.385c.372-.298.983-.334 2.054-.39-.298.203-1.056.427-2.054.39z" data-index="57" style="fill:#143e88;stroke:#143e88"/><path fill="#112867" d="M175.404 937.142c.16-.293.608-.607 1.306-1.027-.172.265-.595.637-1.306 1.027z" data-index="58" style="fill:#112867;stroke:#112867"/><path fill="#143E88" d="M540.235 768.781c.011-.318.267-.812.685-1.534-.038.301-.238.83-.685 1.534z" data-index="59" style="fill:#143e88;stroke:#143e88"/><path fill="#143E88" d="M535.312 773.112c.174-.324.645-.614 1.37-1.016-.188.276-.63.662-1.37 1.016z" data-index="60" style="fill:#143e88;stroke:#143e88"/><path fill="#143E88" d="M534.26 774.7c.014-.303.262-.775.665-1.466-.04.287-.235.792-.665 1.467z" data-index="61" style="fill:#143e88;stroke:#143e88"/><path fill="#143E88" d="M542.32 766.125c.173-.334.647-.625 1.376-1.027-.188.283-.633.676-1.377 1.027z" data-index="62" style="fill:#143e88;stroke:#143e88"/><path fill="#112867" d="M173.235 939.787c.04-.301.307-.776.738-1.47-.06.285-.286.79-.738 1.47z" data-index="63" style="fill:#112867;stroke:#112867"/><path fill="#143E88" d="M541.335 767.072c-.07-.226.162-.459.569-.866.028.17-.12.515-.569.866z" data-index="64" style="fill:#143e88;stroke:#143e88"/><path fill="#112867" d="M174.355 938.048c-.025-.159.205-.376.562-.803.002.13-.142.448-.562.803z" data-index="65" style="fill:#112867;stroke:#112867"/><path fill="#1D2979" d="M182.281 930.105c-.011-.128.21-.416.606-.91-.007.111-.19.431-.606.91z" data-index="66" style="fill:#1d2979;stroke:#1d2979"/><path fill="#1D2979" d="M189.293 923.013c-.059-.197.168-.434.588-.828.017.148-.148.463-.588.828z" data-index="67" style="fill:#1d2979;stroke:#1d2979"/><path fill="#1D2979" d="M190.294 922.014c-.06-.198.167-.436.587-.829.017.15-.147.464-.587.829z" data-index="68" style="fill:#1d2979;stroke:#1d2979"/><path fill="#143E88" d="M523.287 785.388c-.05-.165.18-.517.592-1.124.018.142-.148.54-.592 1.124z" data-index="69" style="fill:#143e88;stroke:#143e88"/><path fill="#143E88" d="M530.347 778.03c.008-.204.35-.444.957-.851-.031.16-.327.487-.957.85z" data-index="70" style="fill:#143e88;stroke:#143e88"/><path fill="#143E88" d="M529.296 779.395c-.058-.173.171-.524.584-1.129.024.148-.137.55-.584 1.129z" data-index="71" style="fill:#143e88;stroke:#143e88"/><path fill="#143E88" d="M524.342 784.022c.012-.198.356-.437.966-.845-.034.155-.334.479-.966.845z" data-index="72" style="fill:#143e88;stroke:#143e88"/><path fill="#143E88" d="M527.313 781.366c.02-.16.363-.516.976-1.125-.037.141-.344.536-.976 1.125z" data-index="73" style="fill:#143e88;stroke:#143e88"/><path fill="#0C5A9D" d="M710.322 598.116c.01-.127.27-.4.738-.864-.024.112-.256.416-.738.864z" data-index="74" style="fill:#0c5a9d;stroke:#0c5a9d"/><path fill="#0573A9" d="M468.011 456.735c-.164-.002-.387-.286-.775-.785.129.024.423.264.775.785z" data-index="75" style="fill:#0573a9;stroke:#0573a9"/><path fill="#0677BB" d="M455.08 443.705c-.208-.014-.457-.38-.899-1.018.159.04.509.352.9 1.018z" data-index="76" style="fill:#0677bb;stroke:#0677bb"/><path fill="#019ED0" d="M726.704 283.928c.025.13-.19.39-.547.854.006-.104.158-.414.547-.854z" data-index="77" style="fill:#019ed0;stroke:#019ed0"/><path fill="#0194BD" d="M197.114 184.659c-.135-.003-.396-.261-.846-.72.114.021.418.243.846.72z" data-index="78" style="fill:#0194bd;stroke:#0194bd"/><path fill="#0194BD" d="M182.11 169.655c-.144.03-.422-.196-.917-.578.117.003.451.162.918.578z" data-index="79" style="fill:#0194bd;stroke:#0194bd"/><path fill="#0B5D9D" d="M78.56 65.946c.181.233.058.463-.249.812-.087-.164-.044-.475.25-.812z" data-index="80" style="fill:#0b5d9d;stroke:#0b5d9d"/><path fill="#0C5A9D" d="M666.303 642.354c.032-.147.377-.5.99-1.11-.047.13-.362.517-.99 1.11z" data-index="81" style="fill:#0c5a9d;stroke:#0c5a9d"/><path fill="#0F5196" d="M641.276 667.378c-.04-.157.192-.51.609-1.12.01.137-.164.53-.609 1.12z" data-index="82" style="fill:#0f5196;stroke:#0f5196"/><path fill="#0F5196" d="M642.333 666.017c.017-.188.365-.428.979-.844-.04.147-.344.47-.98.844z" data-index="83" style="fill:#0f5196;stroke:#0f5196"/><path fill="#0C5A9D" d="M675.3 633.353c.032-.145.375-.496.984-1.103-.047.128-.36.512-.984 1.103z" data-index="84" style="fill:#0c5a9d;stroke:#0c5a9d"/><path fill="#0C5A9D" d="M697.314 611.105c-.026-.14.193-.423.581-.914.002.12-.167.445-.58.914z" data-index="85" style="fill:#0c5a9d;stroke:#0c5a9d"/><path fill="#0C5A9D" d="M698.262 610c.003-.159.284-.385.781-.774-.024.126-.264.416-.781.773z" data-index="86" style="fill:#0c5a9d;stroke:#0c5a9d"/><path fill="#0C5A9D" d="M705.318 603.107c-.027-.14.19-.423.577-.914.002.119-.166.445-.577.914z" data-index="87" style="fill:#0c5a9d;stroke:#0c5a9d"/><path fill="#0C5A9D" d="M706.264 602c.004-.16.286-.385.785-.773-.025.127-.266.417-.785.772z" data-index="88" style="fill:#0c5a9d;stroke:#0c5a9d"/><path fill="#1B2E7C" d="M181.059 815.138c-18.31 18.42-36.613 36.847-54.933 55.257-5.051 5.076-10.021 10.245-15.285 15.093-2.925 2.695-4.12 5.554-4.063 9.575.217 15.318.085 30.642.056 46.427-.629-1.665-1.722-3.787-1.752-5.923-.173-12.272-.072-24.546-.122-36.82-.008-1.894-.312-3.787-.392-4.693-4.235-.528-7.623-1.01-11.025-1.333-.916-.087-1.87.373-2.819.474-3.312.351-6.629.656-10.337.884-.38-25.102-.365-50.11-.049-75.438 2.744 4.042 5.916 5.785 10.947 3.48 1.51-.692 4.013-.328 5.591.476 2.761 1.407 4.182.82 5.464-1.801.532-1.088 1.732-1.85 2.636-2.295.021 9.52-.04 18.576.102 27.63.035 2.226-.48 5.912 4.065 3.008 5.51-5.607 10.872-10.943 16.616-16.346 1.958-1.845 3.534-3.623 5.15-5.528.143-.29.291-.38.864-.467 1.951-1.858 3.521-3.648 5.243-5.702a190.994 190.994 0 0 1 6.686-6.28c.598-.402.935-.64 1.275-.847.004.03-.046-.003.132-.17.412-.393.638-.627.867-.839.012.028-.045.005.133-.162.41-.392.636-.626.866-.839.012.029-.045.004.133-.162.411-.392.637-.626.689-.848-.165.018-.203-.312.166-.332 1.78-.84 3.244-1.581 4.589-2.498 3.536-2.412 6.502-3.664 9.19 1.458.814 1.553 4 2.343 6.188 2.554 2.03.196 4.199-.781 6.273-1.36 3.95-1.1 6.602-.28 6.856 4.367z" data-index="90" style="opacity:1;fill:#1b2e7c;stroke:#1b2e7c"/><path fill="#1D2979" d="M917.825 942.632c-.198-16.43-.049-33.203-.225-49.973-.02-2.006-1.385-4.404-2.85-5.923-9.106-9.441-18.42-18.684-27.843-28.278 3.957-3.574 7.218-.093 10.818 1.065 2.394.77 4.883 1.273 7.356 1.757 1.444.282 3.072-.038 4.391.484 4.515 1.786 8.675 1.603 13.467.242 3.432-.975 7.642 1.018 11.534 1.366 3.057.273 6.158.055 10.503.055 0 14.117 0 29.39-.01 45.137-2.397 2.666-4.42 5.178-8.299 2.292-1.186-.883-4.17 1.09-6.128.709-3.507-.683-6.86-2.16-10.925-3.52-.197 1.67-.557 3.364-.571 5.06-.066 7.793.026 15.588-.08 23.38-.026 1.94-.579 3.87-1.138 6.147z" data-index="91" style="fill:#1d2979;stroke:#1d2979"/><path fill="#1D2979" d="M879.16 930.781c2.271 1.928 4.618 4.23 7.163 6.827-2.23-1.954-4.66-4.203-7.164-6.827z" data-index="92" style="fill:#1d2979;stroke:#1d2979"/><path fill="#0F4F94" d="M257.162 700.98c.026-19.65.052-39.301.524-59.626.735-2.793 1.26-4.91 1.274-7.03.078-11.114.027-22.23.023-33.675.006-.77.011-1.211.017-1.651.394.302 1.051.54 1.143.916 1.245 5.111 4.948 6.044 9.605 6.703 5.118.724 9.11.081 11.643-5.423.532.32 1.065.638 1.597.956 0 21.31 0 42.618-.311 64.546-8.157 7.896-15.4 2.061-23.235-1.164-.18 2.489-.411 4.264-.421 6.04-.044 7.834.096 15.67-.112 23.498-.052 1.984-1.137 3.94-1.747 5.91z" data-index="93" style="fill:#0f4f94;stroke:#0f4f94"/><path fill="#12478F" d="M257.1 701.446c.672-2.436 1.757-4.392 1.81-6.376.207-7.828.067-15.664.111-23.497.01-1.777.24-3.552.42-6.04 7.836 3.224 15.08 9.06 23.23 1.632.318 12.2.33 24.549.34 37.366-.012 6.51-.022 12.552-.344 19.204-6.7 8.27-14.806 6.338-23.268 4.023-.157 2.377-.366 4.155-.378 5.934-.045 6.8.107 13.606-.116 20.4-.065 1.975-1.136 3.918-1.746 5.875-.04-19.351-.08-38.703-.059-58.521z" data-index="94" style="fill:#12478f;stroke:#12478f"/><path fill="#066DA9" d="M258.99 598.53c.004.908 0 1.348-.286 2.11-.651.313-1.023.304-1.395.295v-99.19c1.528 1.487 2.591 2.521 3.838 3.852-.582 2.665-2 5.03-2.014 7.405-.171 28.352-.134 56.706-.142 85.527z" data-index="95" style="fill:#066da9;stroke:#066da9"/><path fill="#018CB7" d="M80.074 196.089c-.012-11.043-.023-22.086-.025-33.594 3.64.486 7.175 1.582 10.466-1.698.668-.666 3.183-.48 4.076.252 3.668 3.009 6.74 2.272 10.077-.44.309 20.388.301 40.415.004 60.636-1.008 2.335-1.413 4.666-2.562 6.542-.676 1.105-3.49 2.33-3.718 2.07-4.9-5.563-13.715-2.905-18.334-8.826-.008-7.388-.015-14.776.082-22.81.048-1.142-.01-1.637-.066-2.132z" data-index="97" style="fill:#018cb7;stroke:#018cb7"/><path fill="#028CC7" d="M104.962 221.05c.007-20.026.015-40.053.018-60.543.44-3.324.885-6.184 1.62-9.266.319 31.046.38 62.314.37 93.581-.014 50.399-.075 100.797-.442 151.41-.711-2.014-1.42-4.24-1.431-6.47-.114-23.238-.115-46.478-.135-70.188.008-33.155.004-65.84 0-98.524z" data-index="98" style="fill:#028cc7;stroke:#028cc7"/><path fill="#018CB7" d="M131.003 158.106c-1.13-.627-2.09-1.503-3.199-2.67 1.286.273 4.87-1.949 3.2 2.67z" data-index="99" style="fill:#018cb7;stroke:#018cb7"/><path fill="#018CB7" d="M80.16 141.74c-.094-.233-.096-.637-.093-1.343.065.19.125.68.093 1.342z" data-index="100" style="fill:#018cb7;stroke:#018cb7"/><path fill="#0961A0" d="M544.226 533.928c2.08 1.725 4.159 3.45 6.02 5.491-5.329-1.818-10.548-2.086-15.916-.776-.898.22-1.971-.073-2.92-.307-4-.99-8.073-3.203-11.203 1.907-.496.81-2.765.532-4.635.78-.98.058-1.541.093-2.102.129-.755-.7-1.51-1.4-2.618-2.61a16.925 16.925 0 0 0-1.42-1.558c-3.09-2.974-6.18-5.948-9.432-9.192-2.648-3.488-5.175-6.675-7.602-9.936-.944-1.268-1.662-2.705-2.483-4.065 1.424-.617 2.812-1.342 4.281-1.818 1.252-.407 2.708-.283 3.88-.818 4.608-2.106 8.953-2.025 13.895-.46 3.311 1.05 7.467.306 11.032-.534 5.228-1.232 11.538.892 12.95 5.447-.474.935-.99 1.512-2.013 2.368-.99.845-1.473 1.412-1.956 1.98 0 0 .025.042-.197.18-.915 4.549 2.466 5.489 5.437 6.778 1.52 1.428 3.039 2.856 4.868 4.774.533.77.757 1.05.981 1.33 0 0-.09 0 .115.122.484.344.76.566 1.038.788z" data-index="102" style="fill:#0961a0;stroke:#0961a0"/><path fill="#0F4F94" d="M767.576 634.747c.335 9.257.377 18.284.048 27.71-1.765-.37-3.158-1.14-4.207-1.72-7.352 5.154-14.74 4.933-22.371 2.284.003-20.678.007-41.356.021-62.495 3.69 2.763 7.899 2.33 12.228 1.391 3.831-.83 7.69-1.53 12.217-2.42.191 2.726.448 4.798.463 6.872.055 7.493-.054 14.988.092 22.479.037 1.896.791 3.779 1.51 5.899z" data-index="103" style="fill:#0f4f94;stroke:#0f4f94"/><path fill="#066DA9" d="M763.79 506.08c.753-1.27 1.86-2.327 4.087-4.455 0 23.869 0 46.13-.056 68.853-.637-1.683-1.705-3.822-1.724-5.97-.153-17.277-.046-34.557-.205-51.835-.02-2.133-1.14-4.255-2.102-6.594z" data-index="104" style="fill:#066da9;stroke:#066da9"/><path fill="#066DA9" d="M757.193 511.87c1.103-1.384 2.587-2.771 4.387-4.31a33.34 33.34 0 0 1-4.387 4.31z" data-index="105" style="fill:#066da9;stroke:#066da9"/><path fill="#0F5196" d="M715.391 588.39c.67-.117 1.18-.077 1.692-.036l-1.714 1.722c-.045-.51-.09-1.02.022-1.687z" data-index="106" style="fill:#0f5196;stroke:#0f5196"/><path fill="#066DA9" d="M756.147 512.828c-.01-.138.157-.45.592-.831.044.174-.183.417-.592.831z" data-index="107" style="fill:#066da9;stroke:#066da9"/><path fill="#018CB7" d="M944.5 145.187c.327 20.926.345 41.944.07 63.588-3.576 3.128-6.76 5.775-10.179 8.075-2.15 1.447-4.576 2.583-7.024 3.448-1.201.424-3.53.413-3.958-.272-1.066-1.702-1.271-3.925-1.94-5.9-.69-2.035-1.52-4.024-2.313-6.507-.011-20.17.003-39.866.017-59.562 3.204 3.501 6.605 5.996 11.801 6.644 3.637.453 5.483-.408 7.462-2.877 1.815-2.265 3.83-4.37 6.065-6.637z" data-index="108" style="fill:#018cb7;stroke:#018cb7"/><path fill="#019ED0" d="M919.142 147.59c.017 20.163.003 39.86-.01 60.487 0 26.28.002 51.628-.02 77.438-.029 20.814-.033 41.165-.056 61.982-.04 10.79-.06 21.115-.331 31.45-.417.01-.585.01-.752.009-.038-33.93-.1-67.86-.108-101.791-.01-47.408.022-94.816.073-142.69.416 3.905.795 8.276 1.204 13.115z" data-index="109" style="fill:#019ed0;stroke:#019ed0"/><path fill="#183481" d="M944.925 756.055c.02 17.342.04 34.684.043 52.497-2.016 7.381-7.7 6.938-13.078 6.89-1.344-.011-2.809-.5-3.995-1.166-2.79-1.568-5.447-3.376-8.524-5.648-.342-18.232-.32-35.903-.005-53.437 2.947 4.213 6.675 4.67 11.02 3.485 1.403-.383 3.06-.675 4.397-.294 3.897 1.107 7.144.114 10.142-2.327z" data-index="110" style="fill:#183481;stroke:#183481"/><path fill="#19317F" d="M855.191 788.94c9.87 9.804 19.738 19.609 29.785 29.698-8.04 7.237-17.617 6.163-27.252 5.05-1.105-.128-2.327.754-3.719 1.453a521.444 521.444 0 0 1-24.922-25.084c.008-8.081.018-7.957 7.155-8.563 4.02-.341 8.54-.213 11.83-2.073 2.812-1.588 4.64-1.693 7.123-.482z" data-index="111" style="fill:#19317f;stroke:#19317f"/><path fill="#114B92" d="M919.074 755.054c-.023 17.67-.045 35.342-.052 53.482-.013 12.038-.02 23.608-.095 35.176-.011 1.8-.336 3.596-.677 5.752-.248-9.631-.401-19.621-.412-29.612-.039-35.645-.03-71.29.301-107.401.34-.466.818-.489.832-.018.043 14.52.073 28.57.103 42.62z" data-index="112" style="fill:#114b92;stroke:#114b92"/><path fill="#13438D" d="M496.17 743.107c.133-.003.44.182.827.631-.164.03-.409-.208-.827-.631z" data-index="113" style="fill:#13438d;stroke:#13438d"/><path fill="#13438D" d="M495.17 742.107c.133-.003.44.182.828.632-.164.029-.409-.208-.828-.632z" data-index="114" style="fill:#13438d;stroke:#13438d"/><path fill="#13438D" d="M494.17 741.107c.132-.003.44.182.828.633-.164.028-.409-.21-.829-.633z" data-index="115" style="fill:#13438d;stroke:#13438d"/><path fill="#13438D" d="M493.17 740.107c.132-.003.44.183.828.633-.164.028-.409-.21-.829-.633z" data-index="116" style="fill:#13438d;stroke:#13438d"/><path fill="#13438D" d="M497.193 744.11c.119 0 .445.173.918.59-.138.023-.425-.196-.918-.59z" data-index="117" style="fill:#13438d;stroke:#13438d"/><path fill="#163A86" d="M767.876 744.98c.04 18.359.08 36.718.074 55.544-.723-1.128-1.67-2.664-2.03-4.327-1.305-6.035-3.454-7.506-9.337-5.902-5.096 1.39-10.084 1.744-15.215-1.132-.324-20.484-.318-40.83.078-61.678 3.104-1.1 6.152-2.792 8.47-2.086 6.19 1.887 12.023.872 17.983-.407.035.757.071 1.513-.248 2.874-2.15 6.177-2.954 11.715.225 17.114z" data-index="118" style="fill:#163a86;stroke:#163a86"/><path fill="#163A86" d="M257.097 760.435c.672-2.425 1.743-4.368 1.808-6.344.223-6.793.071-13.599.116-20.4.012-1.778.22-3.556.378-5.933 8.462 2.315 16.569 4.247 23.262-3.55.313 20.864.32 41.866.32 63.337-6.181 1.332-12.164-2.22-18.627.389-3.952 1.595-5.436 3.32-5.44 7.469-.006 6.764-.613 13.528-1.2 20.69a688.768 688.768 0 0 1-.7-26.37c-.075-9.606.007-19.213.083-29.288z" data-index="119" style="opacity:1;fill:#163a86;stroke:#163a86"/><path fill="#0C5A9D" d="M393.06 639.162c6.358 5.8 12.697 11.969 19.225 18.431-2.429-1.628-5.214-3.363-7.627-5.515-3.834-3.421-7.418-7.12-11.382-10.89-.26-.678-.246-1.168-.215-2.026z" data-index="120" style="fill:#0c5a9d;stroke:#0c5a9d"/><path fill="#0C5A9D" d="M371.158 617.12c1.879 1.497 3.835 3.337 5.923 5.489a64.156 64.156 0 0 1-5.923-5.489z" data-index="121" style="fill:#0c5a9d;stroke:#0c5a9d"/><path fill="#0C5A9D" d="M384.208 629.876c.936.567 1.96 1.5 3.177 2.726-.9-.591-1.994-1.475-3.177-2.726z" data-index="122" style="fill:#0c5a9d;stroke:#0c5a9d"/><path fill="#0C5A9D" d="M388.188 633.775c.866.604 1.811 1.566 2.886 2.838-.85-.619-1.828-1.55-2.886-2.838z" data-index="123" style="fill:#0c5a9d;stroke:#0c5a9d"/><path fill="#0C5A9D" d="M354.196 600.107c.12-.004.448.163.916.578-.143.03-.427-.189-.916-.578z" data-index="124" style="fill:#0c5a9d;stroke:#0c5a9d"/><path fill="#0C5A9D" d="M353.234 598.95c.13.023.417.264.768.783-.161-.003-.385-.285-.768-.783z" data-index="125" style="fill:#0c5a9d;stroke:#0c5a9d"/><path fill="#0677BB" d="M633.994 417.242c-.031.1-.242.393-.701.806.009-.123.265-.367.701-.806z" data-index="126" style="fill:#0677bb;stroke:#0677bb"/><path fill="#0573A9" d="M918.975 378.937c.02-10.325.041-20.65.36-31.261.763.382 1.443.99 1.66 1.732 1.325 4.518 4.05 5.82 8.703 4.868 6-1.227 12.092-1.853 15.204-8.236.055 16.313.11 32.625.159 49.395-.055 8.879-.103 17.3-.447 26.35-3.216 5.575-6.886 8.46-12.964 5.646-.9-.417-2.412-.177-3.362.306-2.9 1.476-4.643.353-6.251-2.053-.704-1.052-1.93-1.756-2.943-3.093-.056-14.868-.087-29.261-.119-43.654z" data-index="127" style="fill:#0573a9;stroke:#0573a9"/><path fill="#0282B2" d="M919.136 285.053c-.002-25.348-.003-50.697.02-76.502.792 1.551 1.622 3.54 2.312 5.576.67 1.974.875 4.197 1.941 5.9.429.684 2.757.695 3.958.271 2.448-.865 4.874-2 7.024-3.448 3.418-2.3 6.603-4.947 10.156-7.6.297 21.516.326 43.187.02 65.427-2.803 2.949-5.068 5.598-7.79 7.64-3.485 2.613-7.122 5.363-11.143 6.753-1.52.526-4.295-2.571-6.498-4.017z" data-index="128" style="fill:#0282b2;stroke:#0282b2"/><path fill="#037BAE" d="M919.112 285.515c2.227.984 5.001 4.081 6.522 3.555 4.021-1.39 7.658-4.14 11.143-6.754 2.722-2.041 4.987-4.69 7.765-7.168.348 23.25.387 46.598.393 70.42-3.145 6.855-9.238 7.48-15.237 8.708-4.653.952-7.378-.35-8.702-4.868-.218-.742-.898-1.35-1.642-2.199-.275-20.53-.271-40.88-.242-61.694z" data-index="129" style="fill:#037bae;stroke:#037bae"/><path fill="#0194BD" d="M944.486 73.497c.02-.008-.02.009 0 0z" data-index="130" style="fill:#0194bd;stroke:#0194bd"/><path fill="#0282B2" d="M104.672 221.245c.294 32.49.298 65.174-.01 98.43-1.567 1.56-2.82 2.55-4.465 3.85-2.627-3.973-5.54-6.133-10.643-3.815-5.727 2.601-5.897 2.138-7.789-4.32-.255-.87-1.083-1.57-1.646-2.35 0 0-.11-.034-.167-.05-.01-30.353.036-60.691.095-91.494 4.63 5.456 13.444 2.798 18.345 8.36.229.26 3.042-.964 3.718-2.069 1.149-1.876 1.554-4.207 2.562-6.542z" data-index="131" style="fill:#0282b2;stroke:#0282b2"/><path fill="#0282B2" d="M80.066 196.394c.065.19.122.685.088 1.353-.093-.234-.094-.641-.088-1.353z" data-index="132" style="fill:#0282b2;stroke:#0282b2"/><path fill="#143E88" d="M79.992 717.441c-.005-6.482-.002-12.493.305-18.8 2.67 4.7 7.884 4.228 12.03 5.823 5.104 1.965 9.28.658 12.698-3.014.007 18.139.007 35.806-.127 53.83-.969 2.855-1.104 6.278-2.837 7.59-1.695 1.282-5.047.687-7.623.429-5.689-.572-11.88-.586-13.236-8.257-.065-.366-.728-.626-1.113-.935-.03-12.065-.06-24.13-.097-36.666z" data-index="133" style="fill:#143e88;stroke:#143e88"/><path fill="#183481" d="M104.968 818.036c-.896.91-2.096 1.672-2.628 2.76-1.282 2.62-2.703 3.208-5.464 1.8-1.578-.803-4.08-1.167-5.591-.475-5.031 2.305-8.203.562-10.94-3.947-.282-16.515-.267-32.882.106-49.619 8.252.551 16.171 2.723 24.517-.517v49.998z" data-index="134" style="fill:#183481;stroke:#183481"/><path fill="#13377C" d="M104.976 818.5c-.008-17.247-.008-34.029-.008-50.462-8.346 3.24-16.265 1.068-24.501.048-.362-4.425-.38-8.75-.389-13.527.396-.143 1.06.117 1.124.483 1.355 7.671 7.547 7.685 13.236 8.257 2.576.258 5.928.853 7.623-.43 1.733-1.31 1.868-4.734 3.054-7.607.635-.455.924-.485 1.219-.466.165 8.482.457 16.964.47 25.447.033 21.167-.1 42.333-.038 63.5.005 1.916.927 3.83 1.827 5.706-3.995 2.594-3.48-1.092-3.515-3.319-.142-9.053-.08-18.11-.102-27.63z" data-index="135" style="fill:#13377c;stroke:#13377c"/><path fill="#114B92" d="M105.018 700.979c-3.412 4.143-7.587 5.45-12.692 3.485-4.145-1.595-9.36-1.122-12.02-6.292-.286-22.183-.279-44.196.022-66.515 2.893 3.445 6.389 6.288 11.002 5.65 4.686-.648 9.923-.304 13.654-3.83.018 22.813.026 45.157.034 67.502z" data-index="136" style="opacity:1;fill:#114b92;stroke:#114b92"/><path fill="#0F5196" d="M104.975 633.01c-3.722 3.993-8.96 3.649-13.645 4.297-4.613.638-8.109-2.205-10.994-6.117-.308-18.868-.33-37.576-.374-56.756-.008-1.214.007-1.956.337-2.917 1.884 1.214 3.492 3.911 5.015 3.865 6.76-.208 14.998 5.226 19.674-3.941.024 2.466.039 4.497.042 7-.026 18.504-.04 36.537-.055 54.57z" data-index="137" style="fill:#0f5196;stroke:#0f5196"/><path fill="#076BA6" d="M79.937 440.396c.009-12.468.041-24.46.46-36.876 4.386 1.057 8.346 1.779 12.362-.51.784-.447 2.283-.728 2.846-.296 3.824 2.938 6.665 2.275 9.356-1.961 0 21.422 0 42.843-.29 64.399-1.585 1.13-2.88 2.127-4.046 3.023-2.095-1.119-3.864-2.326-5.812-3.052-4.874-1.815-9.83-3.412-14.753-5.096-.033-6.385-.066-12.77-.123-19.63z" data-index="138" style="fill:#076ba6;stroke:#076ba6"/><path fill="#0B5D9D" d="M104.98 571.006c-4.668 9.602-12.906 4.168-19.666 4.376-1.523.046-3.13-2.65-5.003-4.236-.3-19.833-.297-39.514.014-59.517 3.176 3.725 6.45 5.26 11.263 2.394 1.073-.639 3.778.455 5.092 1.532 1.153.945 1.411 2.984 2.065 4.54l1.973-1.717c1.427-2.126 2.854-4.253 4.283-5.91-.005 19.825-.013 39.181-.021 58.538z" data-index="139" style="fill:#0b5d9d;stroke:#0b5d9d"/><path fill="#0965A2" d="m104.999 511.999-4.28 6.38-1.974 1.715c-.654-1.555-.912-3.594-2.065-4.539-1.314-1.077-4.019-2.17-5.092-1.532-4.813 2.865-8.087 1.331-11.255-2.861-.299-16.832-.296-33.518-.283-50.67 4.933 1.22 9.889 2.816 14.763 4.631 1.948.726 3.717 1.933 5.812 3.052 1.166-.896 2.461-1.893 4.054-2.556.304 15.682.312 31.03.32 46.38z" data-index="140" style="fill:#0965a2;stroke:#0965a2"/><path fill="#0474AB" d="M105.001 512.468c-.01-15.818-.018-31.167-.033-46.983-.007-21.889-.007-43.31-.007-64.732-2.69 4.236-5.532 4.9-9.356 1.961-.563-.432-2.062-.151-2.846.295-4.016 2.29-7.976 1.568-12.352.043-.383-6.748-.39-13.45-.341-20.736.11-.82.082-1.05-.026-1.272.015-22.359.03-44.718.062-67.54.58.315 1.408 1.017 1.663 1.886 1.892 6.458 2.062 6.921 7.79 4.32 5.103-2.318 8.015-.158 10.642 3.815 1.645-1.3 2.898-2.29 4.452-3.38.333 23.14.334 46.379.448 69.617.01 2.23.72 4.456 1.373 6.932.346 1.406.492 2.564.491 3.722-.053 58.868-.118 117.736-.52 177.07-.691.47-1.045.477-1.399.482-.015-2.03-.03-4.061-.054-6.527 0-19.792.008-39.148.013-58.973z" data-index="141" style="fill:#0474ab;stroke:#0474ab"/><path fill="#076BA6" d="M80.037 381.272c.11-.006.138.224.043.573-.042.11-.047-.345-.043-.573z" data-index="142" style="fill:#076ba6;stroke:#076ba6"/><path fill="#0965A2" d="M919.119 423.066c.988.862 2.214 1.566 2.918 2.618 1.608 2.406 3.35 3.53 6.251 2.053.95-.483 2.463-.723 3.362-.306 6.078 2.815 9.748-.07 12.947-5.17.303 27.513.328 55.18.051 83.48-2.887 6.896-9.25 6.48-14.237 8.278-5.28 1.903-6.902.797-9.03-4.378-.536-1.304-1.528-2.42-2.33-4.092.009-27.808.038-55.145.068-82.483z" data-index="143" style="fill:#0965a2;stroke:#0965a2"/><path fill="#0C5A9D" d="M919.07 506.02c.783 1.201 1.775 2.317 2.311 3.62 2.128 5.176 3.75 6.282 9.03 4.38 4.987-1.798 11.35-1.383 14.221-7.807.33 20.489.377 41.141.425 62.254-.033 5.196-.07 9.93-.399 15.3-2.422 5.649-6.774 7.028-11.636 8.098-5.165 1.136-9.016-.534-11.08-5.392-.678-1.596-1.903-2.96-2.894-4.902-.038-9.852-.059-19.231-.081-29.076.033-15.803.069-31.14.104-46.476z" data-index="144" style="fill:#0c5a9d;stroke:#0c5a9d"/><path fill="#0F4F94" d="M919.065 582.044c.974 1.47 2.2 2.833 2.877 4.429 2.064 4.858 5.915 6.528 11.08 5.392 4.862-1.07 9.214-2.45 11.622-7.627.296 20.507.314 41.18.037 62.498-3.049 5.792-8.087 7.02-13.161 7.578-6.897.758-8.523-.585-10.744-7.001-.299-.863-1.14-1.538-1.746-2.77 0-21.146.017-41.823.035-62.5z" data-index="145" style="fill:#0f4f94;stroke:#0f4f94"/><path fill="#12478F" d="M919.047 645.013c.59.762 1.43 1.437 1.729 2.3 2.22 6.416 3.847 7.759 10.744 7 5.074-.557 10.112-1.785 13.146-7.107.305 18.502.33 37.18.022 56.437-2.5 2.282-4.782 5.551-6.81 5.4-6.622-.493-14.255 1.05-18.878-6.512.003-19.484.025-38.501.047-57.518z" data-index="146" style="fill:#12478f;stroke:#12478f"/><path fill="#143E88" d="M919.02 703c4.603 7.094 12.236 5.55 18.858 6.043 2.028.151 4.31-3.118 6.792-4.932.34 5.232.364 10.575.386 16.381-.033 11.847-.064 23.23-.113 35.088-3.016 2.916-6.263 3.909-10.16 2.802-1.338-.38-2.994-.089-4.397.294-4.345 1.184-8.073.728-11.02-3.485-.322-14.187-.352-28.237-.398-43.204.006-3.607.03-6.297.052-8.987z" data-index="147" style="fill:#143e88;stroke:#143e88"/><path fill="#12478F" d="M767.945 724.526c-6.006 1.745-11.84 2.76-18.03.873-2.317-.706-5.365.985-8.466 1.621-.417-1.391-.448-2.82-.495-4.679.011-19.75.04-39.069.08-58.854 7.643 2.183 15.03 2.404 22.383-2.75 1.05.58 2.442 1.35 4.157 2.186.359 3.105.396 6.145.077 9.868-.53 9.51-.715 18.338-.83 27.166-.005.336.678.681 1.04 1.022.043 7.694.086 15.387.084 23.547z" data-index="148" style="fill:#12478f;stroke:#12478f"/><path fill="#037BAE" d="M853.879 286.98c.063.433.125.865.008 1.991-.423 3.159-.874 5.623-.878 8.088-.039 29.31-.011 58.621-.326 88.06-1.129 1.283-2.215 2.334-2.68 3.612-1.092 3-2.441 3.265-4.46.857-.609-.726-1.284-1.396-2.506-2.714-4.247 6.329-9.128 3.272-13.99.732-.022-11.09.073-21.71-.137-32.322-.041-2.102-1.256-4.18-1.93-6.269-3.25 3.132-6.499 6.264-10.345 9.7-10.031 1.01-19.458 1.885-28.905 2.331-3.318.157-6.686-.738-10.03-1.153 1.478-1.571 2.956-3.143 5.088-4.899 1.478-1.218 2.304-2.25 3.13-3.284 15.645-15.829 31.29-31.657 47.589-47.71 2.246-2.015 3.838-3.806 5.43-5.597-.059-.203.006-.353.655-.584 1.056-.827 1.65-1.52 2.245-2.212 0 0-.023.191.243.14 1.73-1.026 3.253-1.925 4.645-2.996 2.427-1.868 4.773-3.841 7.154-5.77z" data-index="149" style="fill:#037bae;stroke:#037bae"/><path fill="#0B5D9D" d="M515.993 541c1.449-.225 3.718.052 4.214-.757 3.13-5.11 7.204-2.897 11.204-1.907.948.234 2.021.526 2.92.307 5.367-1.31 10.586-1.042 16.114 1.067 8.408 7.667 16.396 15.36 22.843 21.568 14.428-13.408 28.734-26.703 43.745-40.097 11.717 1.103 22.641 1.232 33.486-1.743 2.05-.562 4.535.453 6.819.741-7.08 7.204-14.159 14.409-21.88 21.858-1.547 1.325-2.45 2.405-3.353 3.485-10.792 10.818-21.583 21.636-32.618 32.227 1.424-2.615 3.093-5.003 5.395-8.3-2.573-1.326-5.543-4.06-6.984-3.408-10.711 4.841-22.315 3.661-33.432 5.346-6.213.942-12.738-3.527-19.298-.394-.495-.306-.99-.612-1.9-1.204a475.948 475.948 0 0 1-5.742-4.653c-3.78-3.683-7.558-7.366-11.56-11.688-3.473-4.575-6.723-8.511-9.973-12.448z" data-index="150" style="opacity:1;fill:#0b5d9d;stroke:#0b5d9d"/><path fill="#0F5196" d="M513.99 625c3.457-3.569 6.914-7.137 10.889-10.678 1.431.233 2.823.922 3.183.566 2.732-2.697 5.969-1.93 9.285-2.115 5.963-.333 11.856-1.78 17.818-2.3 3.62-.316 7.849-3.355 10.812 1.517-17.436 17.575-34.872 35.15-53.003 52.91-.971.192-1.247.199-1.522.206-2.064-1.995-4.128-3.99-6.575-6.529-.735-.895-1.087-1.247-1.44-1.599-1.421-1.303-2.843-2.607-4.477-4.536-1.555-2.484-2.679-4.56-4.273-6.17-13.601-13.735-27.313-27.36-40.9-41.11-1.034-1.046-1.365-2.787-2.023-4.205 1.64-.233 3.363-.903 4.903-.61 3.558.674 7.012 2.536 10.535 2.61 6.659.142 13.337-.636 20.008-1.031 7.487 7.51 14.974 15.02 22.675 22.97.506.673.798.908 1.09 1.143.456.037.913.073 1.856.015.71-.414.934-.734 1.159-1.054z" data-index="151" style="opacity:1;fill:#0f5196;stroke:#0f5196"/><path fill="#037BAE" d="M176.542 289.918c11.995 11.917 24.015 23.81 35.977 35.76 11.853 11.841 23.646 23.741 35.225 35.95-9.378-1.237-18.55-2.646-27.642-4.451-4.457-.886-8.48.533-11.041 4.793-3.634-3.641-7.268-7.283-11.49-10.69-.936 4.074-1.282 7.914-1.936 11.915-1.077 1.568-1.829 2.984-2.621 4.377-.547.96-1.202 2.733-1.718 2.7-5.287-.33-10.995 2.214-15.747-2.208-1.306-1.215-2.98-2.034-4.499-3.505-.013-25.63-.013-50.791-.013-76.373l5.505 1.732z" data-index="152" style="fill:#037bae;stroke:#037bae"/><path fill="#0B5D9D" d="M854.786 575.954c.045 12.348.09 24.696-.191 37.098-.75-2.193-1.472-4.43-1.54-6.688-.184-5.967-.11-11.943-.087-17.915.01-2.68-.928-3.737-3.892-3.605-6.425.284-12.871.087-19.78.087-.077 1.424-.265 3.371-.272 5.32-.036 10.948.061 21.899-.118 32.845-.032 1.966-1.142 3.914-1.754 5.87-.044-30.883-.088-61.766.242-93.44.781-3.044 1.527-5.294 1.543-7.55.108-14.66.057-29.32.06-43.978.003.002-.001-.004.315.108 3.194 3.847 6.45 3.527 10.92 2.705 4.127-.76 8.43.129 12.112-5.334.301 3.713.607 5.755.61 7.797.047 26.588.007 53.176.141 79.763.012 2.309 1.102 4.612 1.691 6.917z" data-index="153" style="fill:#0b5d9d;stroke:#0b5d9d"/><path fill="#0C5A9D" d="M415.15 528.948c11.168 11.17 22.336 22.339 33.72 34.148.897 1.925 1.322 3.457 2.296 4.454a1244.445 1244.445 0 0 0 20.237 20.24c.995.973 2.533 1.388 3.82 2.062 0 0-.068.006-.09.394.49 4.915.522 8.999-6.094 7.292-.414-.107-.94.287-1.427.386-11.91 2.43-20.551-5.731-30.555-9.472-.409-.153-.632-.758-.987-1.107-8.853-8.715-17.696-17.441-26.605-26.1-.658-.638-1.801-.777-2.72-1.149-10.162-10.126-20.324-20.252-30.44-30.98 5.737-4.678 12.08-3.103 18.236-2.551 6.885.617 13.74 1.574 20.608 2.383z" data-index="154" style="fill:#0c5a9d;stroke:#0c5a9d"/><path fill="#13377C" d="M147.963 810.617c5.719-6.242 11.946-12.377 17.808-18.842 1.74-1.919 2.452-4.768 3.983-7.845.64-2.755 1.176-4.854 1.188-6.956.103-17.628.11-35.255.56-52.871 5.954.9 11.494 1.775 17.028 2.68 7.407 1.211 7.406 1.222 7.422 8.832.005 2.484-.22 4.994.08 7.44.246 2.002 1.118 3.926 1.712 5.885.06 15.644.199 31.289.072 46.932-.014 1.738-1.174 3.805-2.424 5.135-4.443 4.728-9.155 9.202-14.05 13.952-.537-4.469-3.19-5.288-7.139-4.187-2.074.578-4.242 1.555-6.273 1.36-2.189-.212-5.374-1.002-6.189-2.555-2.687-5.122-5.653-3.87-9.19-1.458-1.344.917-2.809 1.657-4.588 2.498z" data-index="155" style="opacity:1;fill:#13377c;stroke:#13377c"/><path fill="#0474AB" d="M209.23 362.26c2.392-4.55 6.415-5.969 10.872-5.083 9.093 1.805 18.264 3.214 27.815 4.748 19.268 18.774 38.124 37.588 56.828 56.865-2.21 1.264-4.405 2.985-6.298 2.699-6.61-1-13.059-3.175-19.68-3.931-3.7-.423-8.21-.638-10.801 3.55-19.523-19.52-39.045-39.04-58.737-58.848z" data-index="156" style="fill:#0474ab;stroke:#0474ab"/><path fill="#0965A2" d="M414.989 528.651c-6.708-.512-13.563-1.47-20.448-2.086-6.156-.552-12.499-2.127-18.388 2.26a3491.47 3491.47 0 0 1-63.884-63.59c.94-.85 1.951-1.616 2.69-1.409 7.263 2.036 14.438 4.396 21.724 6.335 5.96 1.587 11.877 1.964 16.467-3.451 17.755 17.714 35.513 35.425 53.263 53.144a429.856 429.856 0 0 1 8.576 8.797z" data-index="157" style="fill:#0965a2;stroke:#0965a2"/><path fill="#0965A2" d="M657.62 520.017c-2.566-.126-5.05-1.141-7.101-.579-10.845 2.975-21.769 2.846-33.196 1.585 18.383-18.963 37.18-37.869 56.667-56.773 11.847 3.334 21.708-2.544 32.006-4.779 4.128-.896 7.25-1.886 10.12 1.795-19.405 19.53-38.81 39.059-58.496 58.75z" data-index="158" style="opacity:1;fill:#0965a2;stroke:#0965a2"/><path fill="#0F4F94" d="M827.086 629.434c.678-2.424 1.788-4.372 1.82-6.338.18-10.946.082-21.897.118-32.846.007-1.948.195-3.895.271-5.319 6.91 0 13.356.197 19.781-.087 2.964-.132 3.902.925 3.892 3.605-.022 5.972-.097 11.948.086 17.915.07 2.257.79 4.495 1.485 7.172.255 3.385.24 6.34-.223 10.036-1.267 7.674-2.97 14.65.49 21.39.04 14.696.078 29.392-.223 44.317-.756-1.66-1.485-3.542-1.53-5.44-.155-6.48-.04-12.965-.098-19.448-.012-1.295-.335-2.588-.646-4.827-3.07 5.725-14.63 8.77-22.96 6.72-.116 1.856-.316 3.627-.324 5.398-.037 9.143.082 18.288-.115 27.427-.043 1.967-1.165 3.91-1.79 5.864-.034-25.024-.067-50.048-.034-75.539z" data-index="159" style="fill:#0f4f94;stroke:#0f4f94"/><path fill="#066DA9" d="M716.411 461.1c-3.164-3.515-6.287-2.525-10.415-1.629-10.298 2.235-20.16 8.113-31.71 4.63a2191.601 2191.601 0 0 1 52.452-52.813c2.487 2.558 4.734 2.41 7.634 1.683 7.332-1.836 14.066-6.244 22.501-3.56 3.638 1.156 5.048 2.248 5.152 5.644-15.106 15.293-30.212 30.585-45.614 46.045z" data-index="160" style="opacity:1;fill:#066da9;stroke:#066da9"/><path fill="#0474AB" d="M762.32 414.885c-.4-3.226-1.81-4.318-5.447-5.475-8.435-2.683-15.169 1.725-22.501 3.561-2.9.727-5.147.875-7.344-1.837 16.529-17.147 33.313-34.042 50.384-51.089 3.632.263 7 1.158 10.318 1.001 9.447-.446 18.874-1.32 28.732-2.04-10.57 11.424-21.518 22.905-32.571 34.285-7.012 7.22-14.179 14.288-21.57 21.594z" data-index="161" style="opacity:1;fill:#0474ab;stroke:#0474ab"/><path fill="#066DA9" d="M352.991 466.424c-4.431 5.701-10.348 5.324-16.308 3.737-7.286-1.94-14.46-4.299-21.723-6.335-.74-.207-1.752.56-2.842 1.116-14.75-14.256-29.297-28.753-43.998-43.542 2.437-4.48 6.947-4.265 10.647-3.842 6.621.756 13.07 2.932 19.68 3.93 1.893.287 4.089-1.434 6.466-2.403 16.187 15.572 32.053 31.313 48.078 47.34z" data-index="162" style="fill:#066da9;stroke:#066da9"/><path fill="#13438D" d="M827.058 705.44c.687-2.421 1.81-4.364 1.852-6.33.197-9.14.078-18.285.115-27.428.008-1.771.208-3.542.324-5.397 8.33 2.05 19.89-.996 22.96-6.721.311 2.239.634 3.532.646 4.827.058 6.483-.057 12.969.097 19.449.046 1.897.775 3.779 1.479 5.904.264 6.18.241 12.126-.175 18.755-.278 2.125-.162 3.568-.046 5.01.124 7.978.249 15.954-.203 24.012-4.849-.42-9.112-1.03-13.397-1.374-2.243-.18-4.725.72-6.744.056-4.184-1.378-4.848.437-5.054 3.96-.115 1.97-1.179 3.883-1.816 5.822-.033-13.36-.066-26.718-.038-40.545z" data-index="163" style="fill:#13438d;stroke:#13438d"/><path fill="#12478F" d="M197.792 748.478c-.642-1.497-1.514-3.421-1.76-5.422-.3-2.447-.075-4.957-.08-7.44-.016-7.611-.015-7.622-7.422-8.833-5.534-.905-11.074-1.78-17.051-3.158-.439-23.485-.439-46.48-.439-70.044 9.884 2.812 18.007 1.17 25.857-2.587.053 1.012.106 2.024.287 3.612.296.844.48 1.101.678 1.347.02.18.042.361-.277 1.042-.755 2.052-1.526 3.603-1.532 5.157-.072 18.93-.071 37.862.053 56.792.011 1.663 1.029 3.32 1.578 4.978.053 8.031.105 16.062.108 24.556z" data-index="164" style="opacity:1;fill:#12478f;stroke:#12478f"/><path fill="#0D569A" d="M566.258 611.815c-3.244-4.697-7.473-1.658-11.093-1.342-5.962.52-11.855 1.967-17.818 2.3-3.316.186-6.553-.582-9.285 2.115-.36.356-1.752-.333-2.894-.73 9.545-10.338 19.32-20.486 29.052-30.591-3.18-4.128-6.16-7.997-9.097-12.22 6.605-3.487 13.13.982 19.343.04 11.117-1.685 22.72-.505 33.432-5.346 1.44-.651 4.411 2.082 6.984 3.409-2.302 3.296-3.97 5.684-5.717 8.417-.078.345-.185.235-.311.368-.372.379-.618.625-.863.871 0 0-.021-.098-.142.097-.339.477-.557.758-.776 1.04-1.424 1.51-2.848 3.02-4.762 4.84-.77.537-1.048.763-1.327.99 0 0 .017-.1-.118.096-.38.446-.627.698-.873.95 0 0-.01-.117-.136.064-.372.432-.617.684-.863.935 0 0-.012-.115-.138.066a17.51 17.51 0 0 1-.862.935s-.028-.105-.146.086c-.338.47-.557.751-.777 1.032-3.194 3.465-6.389 6.93-10.12 10.695a53.736 53.736 0 0 0-1.93 1.209s-.025-.097-.14.086c-.363.41-.612.637-.862.865 0 0 0-.082-.101.154-.378.716-.655 1.196-.932 1.677-2.149 2.24-4.298 4.478-6.728 6.892z" data-index="165" style="opacity:1;fill:#0d569a;stroke:#0d569a"/><path fill="#0F5196" d="M196.947 650.534c-7.9 4.217-16.023 5.859-25.907 3.047 0 23.565 0 46.56.024 70.032-.013 18.106-.02 35.733-.122 53.36-.012 2.103-.547 4.202-1.064 6.558-.295-27.372-.407-54.999-.425-82.625-.015-22.302.082-44.604.427-67.739.533-2.964.957-5.095.974-7.228.098-12.65.101-25.3.464-37.845 2.525 1.537 4.574 3.814 6.948 4.229 5.829 1.018 11.808 1.179 17.727 2.101.001 1.805.003 3.194.003 5.051.001 10.918-.062 21.369.057 31.817.025 2.259.705 4.51 1.084 6.766-.047 4.005-.094 8.01-.19 12.476z" data-index="166" style="opacity:1;fill:#0f5196;stroke:#0f5196"/><path fill="#0961A0" d="M195.997 599.007c-.001-1.389-.003-2.778 0-5.053 0-15.852.001-30.818-.006-45.784-.002-3.683-4.18-9.514-7.594-10.451-.727-.2-1.862-.201-2.354.228-5.356 4.664-10.174 1.903-15.026-1.408-.06-18.19-.107-35.912-.13-53.865.024-.231.09-.693.428-.622.989.173 1.664.442 2.286.35 5.477-.812 10.952-2.59 16.322.677.512.312 1.968-.641 2.82-1.243 1.163-.823 2.168-1.872 3.245-2.357.014 5.599-.117 10.734.072 15.858.223 6.08.722 12.15 1.101 18.224.294 1.561.842 3.122.844 4.684.03 26.602-.007 53.204-.397 80.277-.782.476-1.197.48-1.611.485z" data-index="167" style="fill:#0961a0;stroke:#0961a0"/><path fill="#163A86" d="M827.038 746.451c.695-2.405 1.76-4.319 1.874-6.288.206-3.523.87-5.338 5.054-3.96 2.019.664 4.501-.236 6.744-.056 4.285.344 8.548.955 13.113 1.69.275 3.552.258 6.87.104 10.912-.03 1.919.078 3.113.186 4.307.315 11.655.63 23.309 1.012 35.423-2.417-.75-4.245-.646-7.057.942-3.29 1.86-7.81 1.732-11.83 2.073-7.137.606-7.147.482-7.3 8.27-.663-1.32-1.857-3.093-1.874-4.877-.146-15.988-.084-31.979-.026-48.436z" data-index="168" style="fill:#163a86;stroke:#163a86"/><path fill="#0B5D9D" d="M406.914 560.391c.75.077 1.893.216 2.551.855 8.91 8.658 17.752 17.384 26.605 26.099.355.349.578.954.987 1.107 10.004 3.74 18.644 11.903 30.555 9.472.486-.099 1.013-.493 1.427-.386 6.616 1.707 6.585-2.377 6.1-7.325 3.928 3.43 7.826 7.28 11.897 11.422-6.497.686-13.175 1.464-19.834 1.323-3.523-.075-6.977-1.937-10.535-2.612-1.54-.292-3.263.378-4.903.61.658 1.419.99 3.16 2.023 4.206 13.587 13.75 27.299 27.375 40.9 41.11 1.594 1.61 2.718 3.686 4.133 5.913-22.695-22.312-45.48-44.975-68.22-67.682-7.895-7.883-15.682-15.874-23.686-24.112z" data-index="169" style="fill:#0b5d9d;stroke:#0b5d9d"/><path fill="#0677BB" d="M827.05 349.478c.604 1.626 1.819 3.704 1.86 5.806.21 10.613.115 21.232.132 32.781-.012 32.599-.029 64.264-.046 95.929 0 0 .004.006-.288-.003-.677-.013-1.063-.017-1.449-.02-.043-35.21-.087-70.42-.127-105.629-.01-9.467-.008-18.934-.082-28.864z" data-index="170" style="fill:#0677bb;stroke:#0677bb"/><path fill="#028CC7" d="M195.942 363.034c.347-3.84.693-7.68 1.259-11.806.34 7.51.556 15.304.565 23.098.032 28.227-.005 56.454-.332 85.116-.64.429-.963.433-1.303-.01-.055-11.117-.095-21.776-.12-32.904-.014-21.477-.041-42.485-.069-63.494z" data-index="171" style="fill:#028cc7;stroke:#028cc7"/><path fill="#0D569A" d="M197.743 723.464c-.608-1.2-1.626-2.857-1.637-4.52-.124-18.93-.125-37.861-.053-56.792.006-1.554.777-3.105 1.484-4.89.282 21.76.274 43.752.206 66.202z" data-index="172" style="opacity:1;fill:#0d569a;stroke:#0d569a"/><path fill="#0677BB" d="M196.147 459.889a11.57 11.57 0 0 1 1.213.011c.297 17.653.35 35.283.103 53.287-.681-5.7-1.18-11.77-1.403-17.85-.189-5.124-.058-10.26-.063-16.327.053-6.999.102-13.06.15-19.121z" data-index="173" style="fill:#0677bb;stroke:#0677bb"/><path fill="#076BA6" d="M827.176 484.435c.469-.46.855-.457 1.53-.446.288 14.667.339 29.328.231 43.987-.016 2.256-.762 4.506-1.453 7.136-.32-16.486-.355-33.35-.308-50.677z" data-index="174" style="fill:#076ba6;stroke:#076ba6"/><path fill="#0D569A" d="M195.996 599.475c.415-.472.83-.477 1.555-.488a808.29 808.29 0 0 1-.104 38.777c-.689-1.961-1.369-4.213-1.394-6.472-.12-10.448-.056-20.9-.057-31.817z" data-index="175" style="fill:#0d569a;stroke:#0d569a"/><path fill="#0C5A9D" d="M257.22 601.4c.46-.456.833-.447 1.483-.43.284 11.124.335 22.24.257 33.354-.015 2.12-.539 4.237-.976 6.777-.408-2.672-.868-5.764-.89-8.86-.074-10.124.012-20.25.126-30.841z" data-index="176" style="fill:#0c5a9d;stroke:#0c5a9d"/><path fill="#0F4F94" d="M767.911 700.515c-.412.123-1.095-.222-1.09-.558.115-8.828.3-17.656.77-26.714.32 8.782.346 17.794.32 27.272z" data-index="177" style="fill:#0f4f94;stroke:#0f4f94"/><path fill="#12478F" d="M767.924 744.516c-3.227-4.935-2.423-10.473-.33-16.275.324 5.118.35 10.464.33 16.275z" data-index="178" style="fill:#12478f;stroke:#12478f"/><path fill="#125DB3" d="M632.398 545.332c.61-.89 1.513-1.97 2.785-3.144-.585.923-1.538 1.938-2.785 3.144z" data-index="179" style="fill:#125db3;stroke:#125db3"/><path fill="#0B5D9D" d="M575.325 602.183c.16-.345.624-.648 1.34-1.076-.179.289-.607.704-1.34 1.076z" data-index="180" style="fill:#0b5d9d;stroke:#0b5d9d"/><path fill="#0B5D9D" d="M573.24 604.757c.023-.315.3-.795.719-1.511-.06.292-.262.819-.719 1.511z" data-index="181" style="fill:#0b5d9d;stroke:#0b5d9d"/><path fill="#0B5D9D" d="M597.32 580.103c-.028-.142.19-.423.579-.911.002.12-.166.445-.58.911z" data-index="182" style="fill:#0b5d9d;stroke:#0b5d9d"/><path fill="#0B5D9D" d="M587.318 590.098c-.027-.142.192-.422.582-.908.002.12-.167.445-.582.908z" data-index="183" style="fill:#0b5d9d;stroke:#0b5d9d"/><path fill="#0B5D9D" d="M588.266 589.032c-.027-.165.219-.416.648-.854-.003.13-.19.449-.648.854z" data-index="184" style="fill:#0b5d9d;stroke:#0b5d9d"/><path fill="#0B5D9D" d="M589.266 588.031c-.026-.164.22-.416.65-.854-.004.132-.19.45-.65.854z" data-index="185" style="fill:#0b5d9d;stroke:#0b5d9d"/><path fill="#0B5D9D" d="M590.266 587.03c-.027-.163.22-.415.65-.853-.004.131-.19.449-.65.854z" data-index="186" style="fill:#0b5d9d;stroke:#0b5d9d"/><path fill="#0B5D9D" d="M591.261 586.005c.002-.159.28-.385.773-.777-.023.127-.26.418-.773.777z" data-index="187" style="fill:#0b5d9d;stroke:#0b5d9d"/><path fill="#0B5D9D" d="M598.264 579.025c-.028-.165.218-.411.642-.846-.004.129-.186.447-.642.846z" data-index="188" style="fill:#0b5d9d;stroke:#0b5d9d"/><path fill="#0B5D9D" d="M511.64 665.293c.087-.194.363-.201 1.05-.223-.011.127-.436.27-1.05.223z" data-index="189" style="fill:#0b5d9d;stroke:#0b5d9d"/><path fill="#0B5D9D" d="M503.633 657.305c.157.025.509.377 1.125.993-.134-.045-.532-.355-1.125-.993z" data-index="190" style="fill:#0b5d9d;stroke:#0b5d9d"/><path fill="#0D569A" d="M197.84 655.698c-.177.01-.36-.248-.661-.711.124.021.382.239.661.711z" data-index="191" style="fill:#0d569a;stroke:#0d569a"/><path fill="#0B5D9D" d="M574.339 603.1c-.07-.236.179-.463.59-.885.019.169-.126.532-.59.886z" data-index="192" style="fill:#0b5d9d;stroke:#0b5d9d"/><path fill="#13377C" d="M125.76 832.793c1.25-1.625 2.881-3.317 4.811-5.205a52.078 52.078 0 0 1-4.812 5.205z" data-index="193" style="fill:#13377c;stroke:#13377c"/><path fill="#13377C" d="M131.773 826.798c1.243-1.637 2.866-3.343 4.79-5.243a51.406 51.406 0 0 1-4.79 5.243z" data-index="194" style="fill:#13377c;stroke:#13377c"/><path fill="#13377C" d="M143.702 814.816c.03-.158.32-.482.942-.84-.007.2-.344.438-.942.84z" data-index="195" style="fill:#13377c;stroke:#13377c"/><path fill="#13377C" d="M145.11 813.8c-.027-.163.125-.492.566-.845.07.217-.155.451-.567.844z" data-index="196" style="fill:#13377c;stroke:#13377c"/><path fill="#13377C" d="M146.109 812.798c-.027-.164.124-.494.564-.846.072.22-.153.454-.564.846z" data-index="197" style="fill:#13377c;stroke:#13377c"/><path fill="#13377C" d="M147.108 811.797c-.028-.165.122-.496.563-.847.074.221-.152.455-.563.847z" data-index="198" style="fill:#13377c;stroke:#13377c"/><path fill="#125DB3" d="M105.03 578.44c.366-.477.72-.483 1.339-.495.27 20.319.303 40.644.276 60.969-.05 38.326-.135 76.652-.259 115.43-.347.433-.636.463-1.137.562-.217-17.65-.217-35.317-.224-53.456-.015-22.816-.023-45.16-.04-67.972.004-18.5.019-36.533.045-55.038z" data-index="199" style="opacity:1;fill:#125db3;stroke:#125db3"/><path fill="#028CC7" d="M170.978 481.981s-.067.462-.301.706c-.235.244-.658.273-.658.273-.078-6.483-.217-12.966-.225-19.448-.072-58.724-.12-117.448-.175-176.172v-4.647c2.715 2.759 4.615 4.689 6.72 6.922-1.34-.183-2.884-.668-5.302-1.43v76.839c.002 21.286.003 41.636-.01 62.454-.026 18.48-.038 36.491-.05 54.503z" data-index="200" style="fill:#028cc7;stroke:#028cc7"/><path fill="#0677BB" d="M169.908 483.421c.111-.461.534-.49.744-.503.258 17.71.305 35.43.354 54.089-.004 17.618-.01 34.3-.016 50.98-.035 12.651-.038 25.302-.136 37.952-.017 2.133-.441 4.264-.84 6.783a6084.468 6084.468 0 0 1-.348-64.49c-.004-28.116.083-56.233.242-84.81z" data-index="201" style="fill:#0677bb;stroke:#0677bb"/><path fill="#0B5D9D" d="M475.06 589.557c-1.124-.379-2.662-.794-3.657-1.767a1244.445 1244.445 0 0 1-20.237-20.24c-.974-.997-1.4-2.53-2.126-4.166 8.587 8.391 17.223 17.135 26.02 26.173z" data-index="202" style="fill:#0b5d9d;stroke:#0b5d9d"/><path fill="#0866A4" d="M515.572 541.023c3.67 3.914 6.92 7.85 10.236 12.153-3.943-3.567-7.95-7.5-12.147-11.729.37-.33.93-.366 1.911-.424z" data-index="203" style="fill:#0866a4;stroke:#0866a4"/><path fill="#0866A4" d="M537.7 565.426a51.48 51.48 0 0 1 5.261 4.421c-1.624-1.147-3.355-2.64-5.26-4.421z" data-index="204" style="fill:#0866a4;stroke:#0866a4"/><path fill="#0B5D9D" d="M510.861 625.829c-.178-.025-.47-.26-.812-.642.254-.025.504.167.812.642z" data-index="205" style="fill:#0b5d9d;stroke:#0b5d9d"/><path fill="#0B5D9D" d="M513.778 625.119c-.013.2-.237.52-.608.872-.049-.287.133-.55.608-.872z" data-index="206" style="fill:#0b5d9d;stroke:#0b5d9d"/><path fill="#0866A4" d="M509.632 537.31c.156.024.512.373 1.13.99-.137-.044-.534-.354-1.13-.99z" data-index="207" style="fill:#0866a4;stroke:#0866a4"/><path fill="#076BA6" d="M829.312 484.106c-.299-31.777-.282-63.442-.26-95.567 4.857 1.607 9.738 4.664 13.985-1.665 1.222 1.318 1.897 1.988 2.506 2.714 2.019 2.408 3.368 2.143 4.46-.857.465-1.278 1.551-2.33 2.683-3.142.367 26.49.367 52.64.512 78.79.013 2.178 1 4.352 1.534 6.527.075 14.444.196 28.889.214 43.333.025 20.264-.025 40.529-.101 61.254-.648-1.844-1.738-4.147-1.75-6.456-.134-26.587-.094-53.175-.14-79.763-.004-2.042-.31-4.084-.611-7.797-3.682 5.463-7.985 4.574-12.112 5.334-4.47.822-7.726 1.142-10.92-2.705z" data-index="208" style="fill:#076ba6;stroke:#076ba6"/><path fill="#028CC7" d="M854.785 470.448c-.587-1.717-1.574-3.89-1.587-6.07-.145-26.148-.145-52.298-.187-78.918-.013-29.78-.04-59.09-.002-88.4.004-2.466.455-4.93.902-7.761.47 1.03.97 2.428.97 3.825.014 58.955-.018 117.91-.096 177.324z" data-index="209" style="fill:#028cc7;stroke:#028cc7"/><path fill="#0677BB" d="M919.05 505.55c-.014 15.806-.05 31.142-.341 46.953-.429.479-.601.482-.774.486-.092-26.105-.238-52.21-.262-78.315-.029-31.598.046-63.196.188-95.256.28-.462.447-.462.864-.472.282 14.384.313 28.777.37 43.645-.006 27.813-.035 55.15-.044 82.958z" data-index="210" style="fill:#0677bb;stroke:#0677bb"/><path fill="#125DB3" d="M917.833 553.45c.275-.465.447-.468.877-.48.28 9.37.3 18.749.338 28.6 0 21.15-.018 41.827-.018 62.973-.005 19.487-.027 38.504-.03 57.988-.003 3.159-.026 5.849-.046 8.985.003.446-.475.469-.715.475-.322-39.39-.41-78.788-.484-118.185a4539.16 4539.16 0 0 1 .078-40.356z" data-index="211" style="fill:#125db3;stroke:#125db3"/><path fill="#028CC7" d="M853.94 286.636a98.995 98.995 0 0 1-7.215 6.115c-1.392 1.07-2.915 1.97-4.74 2.984 3.842-4.39 8.048-8.816 12.253-13.243l.754.247c-.33 1.184-.661 2.368-1.053 3.897z" data-index="212" style="fill:#028cc7;stroke:#028cc7"/><path fill="#0B5D9D" d="M854.861 644.5c-3.514-6.278-1.812-13.254-.836-20.608.4 6.436.646 13.291.836 20.609z" data-index="213" style="fill:#0b5d9d;stroke:#0b5d9d"/><path fill="#0866A4" d="M537.097 526.6c-2.844-.975-6.225-1.915-5.334-6.47 1.868 1.957 3.537 4.056 5.334 6.47z" data-index="214" style="fill:#0866a4;stroke:#0866a4"/><path fill="#028CC7" d="M838.642 298.606a56.27 56.27 0 0 1-4.86 5.253c1.269-1.629 2.916-3.34 4.86-5.253z" data-index="215" style="fill:#028cc7;stroke:#028cc7"/><path fill="#13438D" d="M854.37 752.84c-.365-.978-.473-2.172-.412-3.64.335.96.502 2.192.411 3.64z" data-index="216" style="fill:#13438d;stroke:#13438d"/><path fill="#028CC7" d="M785.635 351.873c-.543.87-1.369 1.903-2.555 2.992.517-.906 1.394-1.867 2.555-2.992z" data-index="217" style="fill:#028cc7;stroke:#028cc7"/><path fill="#028CC7" d="M841.53 295.767c-.288.532-.882 1.225-1.805 2.06.281-.538.89-1.218 1.806-2.06z" data-index="218" style="fill:#028cc7;stroke:#028cc7"/><path fill="#0F4F94" d="M854.531 713.03c-.337-.963-.453-2.406-.422-4.2.313 1.006.479 2.364.422 4.2z" data-index="219" style="fill:#0f4f94;stroke:#0f4f94"/><path fill="#0866A4" d="M532.223 519.808c.244-.42.727-.987 1.462-1.688-.24.424-.731.983-1.462 1.688z" data-index="220" style="fill:#0866a4;stroke:#0866a4"/><path fill="#0866A4" d="M544.092 533.679c-.143.027-.42-.195-.904-.585.12 0 .444.168.904.585z" data-index="221" style="fill:#0866a4;stroke:#0866a4"/><path fill="#0866A4" d="M543.009 532.74c-.16-.001-.384-.281-.776-.772.125.024.419.26.776.773z" data-index="222" style="fill:#0866a4;stroke:#0866a4"/><path fill="#0573A9" d="M171.04 427.01c0-20.35-.001-40.7.011-61.516 1.518.536 3.192 1.355 4.498 2.57 4.752 4.422 10.46 1.877 15.747 2.209.516.032 1.171-1.74 1.718-2.7.792-1.394 1.544-2.81 2.62-4.378.336 20.848.363 41.856.072 63.46-2.3.625-4.286.596-6.264.702-1.97.105-4.61-.4-5.778.66-4.135 3.754-7.668 4.79-11.287-.404-.24-.344-.882-.408-1.337-.602z" data-index="223" style="fill:#0573a9;stroke:#0573a9"/><path fill="#0C5A9D" d="M171.318 588.094c-.322-16.788-.316-33.47-.298-50.618 4.85 2.374 9.667 5.135 15.023.47.492-.428 1.627-.427 2.354-.227 3.413.937 7.592 6.768 7.594 10.451.007 14.966.006 29.932.005 45.368-5.922-.036-11.901-.197-17.73-1.215-2.374-.415-4.423-2.692-6.948-4.229z" data-index="224" style="fill:#0c5a9d;stroke:#0c5a9d"/><path fill="#076BA6" d="M171.026 427.478c.47-.273 1.111-.21 1.35.135 3.62 5.195 7.153 4.158 11.288.404 1.168-1.06 3.808-.555 5.778-.66 1.978-.106 3.963-.077 6.25-.234.344 10.533.384 21.192.44 32.309-.033 6.518-.082 12.58-.14 19.11-1.081 1.422-2.086 2.47-3.25 3.294-.85.602-2.307 1.555-2.819 1.243-5.37-3.267-10.845-1.49-16.322-.677-.622.092-1.297-.177-2.286-.35-.326-18.083-.314-36.095-.289-54.574z" data-index="225" style="fill:#076ba6;stroke:#076ba6"/></svg>