<svg version="1.1" xmlns="http://www.w3.org/2000/svg" style="display: block;" viewBox="0 0 2048 2048" width="1024" height="1024" preserveAspectRatio="none">
<defs>
	<linearGradient id="Gradient1" gradientUnits="userSpaceOnUse" x1="748.889" y1="1001.55" x2="396.739" y2="1207.74">
		<stop class="stop0" offset="0" stop-opacity="1" stop-color="rgb(5,55,132)"></stop>
		<stop class="stop1" offset="1" stop-opacity="1" stop-color="rgb(25,171,219)"></stop>
	</linearGradient>
	<linearGradient id="Gradient2" gradientUnits="userSpaceOnUse" x1="1512.67" y1="1289.58" x2="1604.63" y2="1335.78">
		<stop class="stop0" offset="0" stop-opacity="1" stop-color="rgb(23,154,205)"></stop>
		<stop class="stop1" offset="1" stop-opacity="1" stop-color="rgb(23,186,230)"></stop>
	</linearGradient>
	<linearGradient id="Gradient3" gradientUnits="userSpaceOnUse" x1="1298.59" y1="1006.11" x2="1597.55" y2="1170.52">
		<stop class="stop0" offset="0" stop-opacity="1" stop-color="rgb(7,58,134)"></stop>
		<stop class="stop1" offset="1" stop-opacity="1" stop-color="rgb(22,158,209)"></stop>
	</linearGradient>
	<linearGradient id="Gradient4" gradientUnits="userSpaceOnUse" x1="781.153" y1="452.129" x2="1323.14" y2="970.175">
		<stop class="stop0" offset="0" stop-opacity="1" stop-color="rgb(4,107,181)"></stop>
		<stop class="stop1" offset="1" stop-opacity="1" stop-color="rgb(24,176,222)"></stop>
	</linearGradient>
	<linearGradient id="Gradient5" gradientUnits="userSpaceOnUse" x1="156.089" y1="2064.76" x2="162.86" y2="2005.26">
		<stop class="stop0" offset="0" stop-opacity="1" stop-color="rgb(159,158,158)"></stop>
		<stop class="stop1" offset="1" stop-opacity="1" stop-color="rgb(228,227,227)"></stop>
	</linearGradient>
</defs>


<path transform="translate(0,0)" fill="rgb(255,255,255)" d="M 281.875 2005.32 C 281.851 2007.62 281.925 2009.92 281.943 2012.23 C 281.98 2016.92 282.018 2022.75 277.721 2025.89 C 275.639 2027.41 274.747 2027.1 272.378 2026.78 C 270.396 2025.24 270.091 2025.16 269.402 2022.78 C 271.83 2021.72 272.81 2022.38 275.299 2022.92 C 276.261 2022.44 276.941 2021.57 277.7 2020.82 C 276.246 2019.6 273.081 2019.93 271.155 2019.81 C 268.806 2017.88 267.761 2016.48 266.306 2013.81 C 266.418 2012.32 266.139 2011.36 267.223 2010.21 C 269.421 2007.87 272.385 2006.6 275.556 2006.45 C 277.242 2006.37 278.595 2006.27 280.232 2005.8 L 281.875 2005.32 z" data-index="1"></path>
<path transform="translate(0,0)" fill="rgb(255,255,255)" d="M 287.733 2005.65 C 291.024 2006 294.444 2006.15 296.96 2008.6 C 298.552 2010.14 299.059 2012.1 298.544 2014.27 C 298.027 2016.46 296.242 2018.49 294.748 2020.08 C 291.279 2019.97 289.239 2019.86 286.291 2017.95 C 285.031 2015.93 284.085 2014.01 284.774 2011.51 C 285.154 2010.14 285.695 2009.37 286.367 2008.14 L 287.15 2006.68 C 287.34 2006.34 287.539 2006 287.733 2005.65 z" data-index="2"></path>
<path transform="translate(0,0)" fill="rgb(212,211,211)" d="M 143.525 2006.85 L 144.797 2006.3 L 145.486 1999.84 C 145.475 2004.63 144.445 2013.4 146.228 2017.6 L 148.158 2018.61 C 145.823 2019.57 143.263 2019.85 140.817 2020.58 L 138.949 2019.76 C 137.783 2016.48 139.199 2012.25 140.751 2009.25 C 141.427 2007.94 142.334 2007.62 143.525 2006.85 z" data-index="3"></path>
<path transform="translate(0,0)" fill="rgb(255,255,255)" d="M 255.421 2006.55 C 258.994 2005.11 263.065 2006.79 264.571 2010.34 C 266.077 2013.89 264.463 2017.99 260.943 2019.56 C 258.61 2020.6 255.897 2020.3 253.848 2018.77 C 251.799 2017.25 250.733 2014.73 251.059 2012.2 C 251.385 2009.67 253.053 2007.51 255.421 2006.55 z" data-index="4"></path>
<path transform="translate(0,0)" fill="rgb(212,211,211)" d="M 74.2113 2008.2 C 75.4589 2008.25 77.0463 2008.2 78.2147 2008.69 C 81.3069 2009.98 83.4339 2013.58 84.305 2016.64 C 83.6219 2019.32 83.202 2019.14 80.7975 2020.61 C 78.9468 2020.56 76.2313 2020.77 74.4806 2020.2 C 71.9086 2019.36 71.38 2018.7 70.1503 2016.52 C 70.0149 2013.03 72.2303 2010.85 74.2113 2008.2 z" data-index="5"></path>
<path transform="translate(0,0)" fill="rgb(212,211,211)" d="M 57.8885 2008.3 C 60.7852 2008.63 62.0417 2008.66 64.1699 2010.93 C 66.2142 2013.11 66.1796 2014.2 66.211 2016.97 C 64.478 2019.88 63.3307 2019.72 60.2112 2020.78 C 59.1108 2020.73 58.642 2020.77 57.4956 2020.39 C 54.9002 2019.54 53.5805 2018.16 52.4596 2015.83 C 53.3435 2011.77 54.8883 2011.07 57.8885 2008.3 z" data-index="6"></path>
<path transform="translate(0,0)" fill="rgb(255,255,255)" d="M 240.364 2001.5 C 246.406 2004.24 242.096 2011.6 244.771 2016.57 C 246.604 2016.88 248.08 2016.96 249.585 2018.16 C 249.856 2018.38 250.081 2018.65 250.329 2018.89 C 248.768 2019.25 247.013 2019.79 245.42 2019.88 C 242.6 2020.05 242.331 2019.69 240.382 2017.89 C 238.714 2012.89 239.959 2006.7 240.364 2001.5 z" data-index="7"></path>
<path transform="translate(0,0)" fill="url(#Gradient4)" d="M 702.162 535.727 C 730.795 561.069 757.343 589.788 784.382 616.862 L 927.952 760.626 L 978.977 811.977 C 986.223 819.213 993.267 827.914 1001.5 833.956 C 1009.43 839.774 1018.72 842.288 1028.49 841.637 C 1036.06 841.134 1042.35 838.767 1048.26 834.074 C 1057.44 826.782 1065.48 817.245 1073.73 808.903 L 1121.53 760.883 L 1282.36 600.077 C 1302.83 579.577 1339.65 537.528 1363.71 526.075 C 1399.07 509.01 1441.12 514.023 1471.47 538.921 C 1481.47 547.256 1578.63 644.307 1582.2 650.459 C 1597.22 668.17 1606.53 687.169 1610.76 710.105 C 1614.7 731.493 1613.23 754.36 1613.21 776.059 L 1613.1 868.357 L 1613.17 1013.63 C 1613.17 1038.05 1614.18 1062.98 1612.96 1087.35 C 1613.81 1104.27 1613.23 1121.44 1613.21 1138.39 L 1613.07 1229.88 L 1613.23 1284.28 C 1613.27 1297.14 1614.27 1311.01 1611.74 1323.66 C 1609.47 1334.98 1603.3 1345.54 1595.65 1354.07 C 1583.61 1367.5 1566.6 1377.31 1551.87 1387.59 L 1502.97 1422.05 C 1475.86 1441.2 1449.28 1462.13 1421.36 1480.05 C 1407.23 1490.21 1393.05 1500.3 1378.81 1510.31 C 1369.12 1517.21 1359.11 1526.17 1348.12 1530.79 C 1344.15 1532.46 1339.68 1532.85 1335.46 1532.09 C 1329.41 1530.99 1323.64 1527.48 1320.11 1522.41 C 1318.38 1519.92 1317.23 1517.36 1316.68 1514.37 C 1315.03 1494.52 1316.23 1473.77 1316.24 1453.83 L 1316.24 1341.03 L 1316.1 969.468 C 1255.73 1028.51 1196.67 1089.02 1136.82 1148.59 L 1097.24 1188.03 C 1087.34 1197.96 1077.18 1209.81 1065.53 1217.6 C 1053.78 1225.45 1039.73 1229.28 1025.68 1229.35 C 1012.17 1229.43 996.433 1226.02 985.062 1218.43 C 973.491 1210.71 963.515 1199.29 953.615 1189.54 L 906.412 1142.82 L 733.057 970.158 C 727.853 963.091 719.562 956.347 713.313 950.089 L 668.222 904.873 C 612.762 850.066 557.651 794.907 502.89 739.4 C 485.677 723.62 465.45 706.493 462.658 681.791 C 461.913 675.191 464.24 665.404 462.108 659.425 C 461.927 658.916 461.717 658.418 461.521 657.914 C 477.18 636.832 501.564 615.56 520.264 596.676 C 538.404 578.358 564.424 548.741 584.524 534.484 C 596.289 526.143 609.73 520.466 623.912 517.847 C 652.418 512.625 678.49 519.462 702.162 535.727 z" data-index="8" style="opacity: 1; visibility: visible; fill: rgb(235, 235, 249);"></path>
<path transform="translate(0,0)" fill="url(#Gradient3)" d="M 1582.2 650.459 C 1597.22 668.17 1606.53 687.169 1610.76 710.105 C 1614.7 731.493 1613.23 754.36 1613.21 776.059 L 1613.1 868.357 L 1613.17 1013.63 C 1613.17 1038.05 1614.18 1062.98 1612.96 1087.35 C 1613.81 1104.27 1613.23 1121.44 1613.21 1138.39 L 1613.07 1229.88 L 1613.23 1284.28 C 1613.27 1297.14 1614.27 1311.01 1611.74 1323.66 C 1609.47 1334.98 1603.3 1345.54 1595.65 1354.07 C 1583.61 1367.5 1566.6 1377.31 1551.87 1387.59 L 1502.97 1422.05 C 1475.86 1441.2 1449.28 1462.13 1421.36 1480.05 C 1407.23 1490.21 1393.05 1500.3 1378.81 1510.31 C 1369.12 1517.21 1359.11 1526.17 1348.12 1530.79 C 1344.15 1532.46 1339.68 1532.85 1335.46 1532.09 C 1329.41 1530.99 1323.64 1527.48 1320.11 1522.41 C 1318.38 1519.92 1317.23 1517.36 1316.68 1514.37 C 1317.77 1494.13 1316.89 1473.38 1316.9 1453.09 L 1316.87 1335.05 L 1316.82 969.917 C 1324.14 960.614 1333.28 952.4 1341.68 944.059 L 1380.41 905.392 L 1523.01 763.093 C 1537.96 748.109 1568.97 720.632 1579.27 703.318 C 1589.31 686.427 1587.13 668.388 1582.2 650.459 z" data-index="9" style="opacity: 1; visibility: visible; fill: rgb(199, 199, 244);"></path>
<path transform="translate(0,0)" fill="url(#Gradient2)" d="M 1421.36 1480.05 C 1419.52 1479.39 1420.49 1479.86 1418.54 1478.49 C 1421.68 1473.17 1426.44 1469.76 1430.48 1465.23 C 1435.12 1460.03 1436.94 1451.76 1440.7 1445.81 C 1446.53 1436.6 1454.8 1428.85 1460.61 1419.29 C 1468.06 1407.05 1472.84 1393.03 1479.47 1380.32 C 1489.78 1360.61 1501.65 1341.54 1511.6 1321.63 C 1516.67 1311.48 1518.33 1299.77 1523.45 1289.66 C 1527.29 1282.08 1532.27 1274.85 1536.47 1267.44 C 1545.06 1252.29 1552.92 1236.81 1561.32 1221.58 C 1566.32 1212.52 1572.06 1203.8 1576.66 1194.54 C 1581.18 1185.48 1584.25 1175.34 1587.81 1165.86 C 1593.8 1149.95 1599.78 1134.37 1604.85 1118.13 C 1606.8 1111.85 1612.04 1103.54 1611.66 1097.24 C 1611.45 1093.86 1610.78 1089.99 1612.96 1087.35 C 1613.81 1104.27 1613.23 1121.44 1613.21 1138.39 L 1613.07 1229.88 L 1613.23 1284.28 C 1613.27 1297.14 1614.27 1311.01 1611.74 1323.66 C 1609.47 1334.98 1603.3 1345.54 1595.65 1354.07 C 1583.61 1367.5 1566.6 1377.31 1551.87 1387.59 L 1502.97 1422.05 C 1475.86 1441.2 1449.28 1462.13 1421.36 1480.05 z" data-index="10" style="opacity: 1; visibility: visible; fill: rgb(223, 223, 251);"></path>
<path transform="translate(0,0)" fill="rgb(3,106,181)" d="M 461.521 657.914 C 477.18 636.832 501.564 615.56 520.264 596.676 C 538.404 578.358 564.424 548.741 584.524 534.484 C 596.289 526.143 609.73 520.466 623.912 517.847 C 652.418 512.625 678.49 519.462 702.162 535.727 C 702.087 536.014 702.002 536.299 701.936 536.589 C 700.747 541.801 702.714 546.033 703.196 551.131 C 704.178 561.523 704.25 580.371 700.086 590.006 C 697.476 596.045 689.933 603.13 685.317 608.024 C 679.254 608.629 680.704 604.32 675.663 610.504 C 668.023 619.875 662.195 630.788 654.155 639.834 C 639.317 656.53 618.542 670.417 602.227 687.389 C 599.656 690.064 596.937 693.551 593.73 695.406 C 583.234 701.479 569.558 701.38 559.732 708.299 C 544.078 719.324 531.466 734.141 512.968 740.737 C 509.612 740.27 506.252 739.825 502.89 739.4 C 485.677 723.62 465.45 706.493 462.658 681.791 C 461.913 675.191 464.24 665.404 462.108 659.425 C 461.927 658.916 461.717 658.418 461.521 657.914 z" data-index="11" style="opacity: 1; visibility: visible; fill: rgb(232, 232, 248);"></path>
<path transform="translate(0,0)" fill="url(#Gradient1)" d="M 461.521 657.914 C 461.717 658.418 461.927 658.916 462.108 659.425 C 464.24 665.404 461.913 675.191 462.658 681.791 C 465.45 706.493 485.677 723.62 502.89 739.4 C 557.651 794.907 612.762 850.066 668.222 904.873 L 713.313 950.089 C 719.562 956.347 727.853 963.091 733.057 970.158 L 733.057 1344.69 L 733.087 1457.94 C 733.098 1476.14 734.619 1495.91 732.735 1513.96 C 732.237 1518.73 730.044 1522.73 726.518 1526.01 C 721.619 1530.57 714.574 1532.5 707.998 1531.96 C 704.338 1531.65 700.166 1530.62 696.992 1528.7 C 682.856 1520.2 669.239 1509.13 655.735 1499.58 L 570.077 1439.01 L 528.372 1409.54 C 523.201 1405.9 516.089 1402.14 511.824 1397.71 C 500.005 1391.33 464.28 1365.59 455.208 1356.01 C 434.642 1334.3 435.738 1312.89 435.683 1284.72 C 435.543 1268.69 435.642 1252.66 435.981 1236.64 C 435.046 1226.79 435.77 1216.32 435.828 1206.4 C 435.928 1189.35 435.937 1172.3 435.857 1155.24 L 435.949 974.353 L 435.941 807.833 C 435.896 778.173 433.526 743.733 437.439 714.654 C 440.19 694.214 449.034 674.233 461.521 657.914 z" data-index="12" style="opacity: 1; visibility: visible; fill: rgb(199, 199, 244);"></path>
<path transform="translate(0,0)" fill="rgb(24,178,226)" d="M 435.981 1236.64 C 436.055 1237 436.134 1237.36 436.204 1237.73 C 440.669 1260.97 436.705 1269.13 447.628 1294.18 C 453.678 1308.05 464.352 1320.06 472.434 1332.79 C 482.197 1348.16 490.69 1364.32 500.441 1379.7 C 503.822 1385.03 510.97 1391.56 511.824 1397.71 C 500.005 1391.33 464.28 1365.59 455.208 1356.01 C 434.642 1334.3 435.738 1312.89 435.683 1284.72 C 435.543 1268.69 435.642 1252.66 435.981 1236.64 z" data-index="13" style="opacity: 1; visibility: visible; fill: rgb(223, 223, 251);"></path>
<path transform="translate(0,0)" fill="rgb(212,211,211)" d="M 310.86 2005.28 C 313.132 2005.64 314.68 2006.31 316.714 2007.38 C 318.563 2009.96 318.158 2012.49 318.067 2015.51 C 315.819 2016.08 314.39 2016.55 312.117 2015.9 C 310.155 2012.66 310.838 2009.01 310.86 2005.28 z" data-index="14"></path>
</svg>